<svg xmlns="http://www.w3.org/2000/svg" xmlns:xlink="http://www.w3.org/1999/xlink" width="220" zoomAndPan="magnify" viewBox="0 0 165 82.499998" height="110" preserveAspectRatio="xMidYMid meet" version="1.0"><defs><clipPath id="e1215e92d1"><path d="M 0.496094 0 L 164.503906 0 L 164.503906 82.003906 L 0.496094 82.003906 Z M 0.496094 0 " clip-rule="nonzero"/></clipPath><clipPath id="74d9be158b"><path d="M 4.609375 30.972656 L 22.660156 30.972656 L 22.660156 51 L 4.609375 51 Z M 4.609375 30.972656 " clip-rule="nonzero"/></clipPath><clipPath id="09a81af4cc"><path d="M 10.597656 30.972656 C 11.613281 32.90625 13.546875 34.003906 15.550781 34.730469 C 18.296875 35.726562 20.613281 37 21.773438 39.398438 L 21.769531 39.40625 C 22.316406 40.527344 22.621094 41.789062 22.621094 43.125 C 22.621094 46.085938 21.113281 48.691406 18.824219 50.21875 C 18.613281 50.359375 18.394531 50.492188 18.167969 50.613281 C 18.027344 50.679688 17.882812 50.742188 17.738281 50.804688 C 16.988281 49.597656 15.65625 48.796875 14.136719 48.796875 C 12.617188 48.796875 11.289062 49.597656 10.539062 50.804688 C 10.390625 50.742188 10.246094 50.679688 10.105469 50.613281 C 9.875 50.507812 9.652344 50.390625 9.433594 50.265625 C 6.550781 48.621094 4.609375 45.511719 4.609375 41.945312 C 4.609375 39.996094 5.191406 38.1875 6.1875 36.675781 L 6.195312 36.691406 C 6.789062 37.746094 7.8125 38.523438 9.035156 38.777344 C 8.679688 37.933594 8.484375 37.003906 8.484375 36.027344 C 8.484375 34.054688 9.289062 32.269531 10.585938 30.980469 Z M 10.597656 30.972656 " clip-rule="nonzero"/></clipPath><clipPath id="749ea0f742"><path d="M 95.15625 37.039062 L 107.859375 37.039062 L 107.859375 51 L 95.15625 51 Z M 95.15625 37.039062 " clip-rule="nonzero"/></clipPath><clipPath id="1a11d9e012"><path d="M 101.355469 37.039062 C 103.238281 37.039062 104.714844 37.53125 105.777344 38.515625 C 106.835938 39.503906 107.367188 40.882812 107.367188 42.660156 L 107.367188 49.171875 C 107.367188 50.074219 106.640625 50.804688 105.742188 50.804688 C 104.84375 50.804688 104.117188 50.074219 104.117188 49.171875 L 104.117188 42.382812 C 104.117188 42.019531 104.082031 41.71875 104.019531 41.472656 C 103.953125 41.230469 103.820312 40.976562 103.621094 40.710938 C 103.421875 40.445312 103.097656 40.246094 102.648438 40.113281 C 102.203125 39.980469 101.625 39.914062 100.917969 39.914062 C 100.917969 39.914062 100.914062 39.917969 100.914062 39.917969 C 100.503906 39.917969 100.082031 39.9375 99.648438 39.980469 C 99.625 39.984375 99.601562 39.988281 99.578125 39.992188 C 98.917969 40.074219 98.410156 40.632812 98.410156 41.304688 L 98.410156 49.171875 C 98.410156 50.074219 97.679688 50.804688 96.78125 50.804688 C 95.886719 50.804688 95.15625 50.074219 95.15625 49.171875 L 95.15625 38.523438 C 95.367188 38.417969 95.585938 38.339844 95.796875 38.246094 C 95.839844 38.21875 95.878906 38.1875 95.925781 38.167969 C 96.0625 38.105469 96.207031 38.0625 96.347656 38.007812 C 96.539062 37.933594 96.726562 37.859375 96.917969 37.792969 C 97.21875 37.691406 97.515625 37.605469 97.816406 37.523438 C 98.003906 37.472656 98.1875 37.417969 98.375 37.375 C 98.703125 37.300781 99.039062 37.25 99.371094 37.199219 C 99.53125 37.175781 99.691406 37.144531 99.851562 37.125 C 100.347656 37.070312 100.851562 37.039062 101.355469 37.039062 Z M 101.355469 37.039062 " clip-rule="nonzero"/></clipPath><clipPath id="0d471bce01"><path d="M 42.058594 37.039062 L 54 37.039062 L 54 51 L 42.058594 51 Z M 42.058594 37.039062 " clip-rule="nonzero"/></clipPath><clipPath id="357ad61cd3"><path d="M 47.996094 37.039062 C 49.945312 37.039062 51.417969 37.660156 52.417969 38.902344 C 53.417969 40.144531 53.917969 41.675781 53.917969 43.492188 C 53.917969 44.238281 53.902344 44.789062 53.867188 45.144531 L 45.253906 45.144531 C 45.34375 46.300781 45.683594 47.074219 46.289062 47.46875 C 46.890625 47.855469 47.671875 48.050781 48.632812 48.050781 C 49.25 48.050781 49.898438 48.019531 50.503906 47.882812 C 51.050781 47.761719 51.25 47.476562 51.773438 47.882812 C 51.894531 47.976562 52.015625 48.074219 52.101562 48.203125 C 52.941406 49.4375 51.34375 50.410156 50.339844 50.601562 C 49.644531 50.738281 48.914062 50.804688 48.152344 50.804688 C 47.5625 50.804688 47.007812 50.757812 46.488281 50.660156 C 45.96875 50.566406 45.429688 50.363281 44.875 50.0625 C 44.316406 49.757812 43.835938 49.371094 43.4375 48.902344 C 43.035156 48.429688 42.703125 47.78125 42.445312 46.953125 C 42.1875 46.121094 42.058594 45.164062 42.058594 44.078125 C 42.058594 41.9375 42.535156 40.230469 43.480469 38.953125 C 44.429688 37.675781 45.933594 37.039062 47.996094 37.039062 Z M 47.917969 39.671875 C 47.121094 39.671875 46.5 39.929688 46.054688 40.441406 C 45.605469 40.953125 45.34375 41.785156 45.253906 42.929688 L 50.605469 42.929688 C 50.519531 42.015625 50.25 41.246094 49.796875 40.617188 C 49.339844 39.988281 48.714844 39.671875 47.917969 39.671875 Z M 47.917969 39.671875 " clip-rule="nonzero"/></clipPath><clipPath id="21a611d105"><path d="M 81.308594 37.039062 L 93.34375 37.039062 L 93.34375 51 L 81.308594 51 Z M 81.308594 37.039062 " clip-rule="nonzero"/></clipPath><clipPath id="29e7e72c33"><path d="M 87.246094 37.039062 C 89.195312 37.039062 90.671875 37.660156 91.671875 38.902344 C 92.671875 40.144531 93.171875 41.675781 93.171875 43.492188 C 93.171875 44.238281 93.152344 44.789062 93.117188 45.144531 L 84.503906 45.144531 C 84.59375 46.300781 84.9375 47.074219 85.539062 47.46875 C 86.140625 47.855469 86.921875 48.050781 87.882812 48.050781 C 88.503906 48.050781 89.148438 48.019531 89.757812 47.882812 C 90.300781 47.761719 90.503906 47.476562 91.023438 47.882812 C 91.144531 47.976562 91.265625 48.074219 91.351562 48.203125 C 92.191406 49.4375 90.597656 50.410156 89.589844 50.601562 C 88.894531 50.738281 88.164062 50.804688 87.402344 50.804688 C 86.8125 50.804688 86.257812 50.757812 85.738281 50.660156 C 85.21875 50.566406 84.683594 50.363281 84.125 50.0625 C 83.566406 49.757812 83.089844 49.371094 82.6875 48.902344 C 82.285156 48.429688 81.957031 47.78125 81.699219 46.953125 C 81.441406 46.121094 81.308594 45.164062 81.308594 44.078125 C 81.308594 41.9375 81.785156 40.230469 82.734375 38.953125 C 83.683594 37.675781 85.1875 37.039062 87.246094 37.039062 Z M 87.167969 39.671875 C 86.371094 39.671875 85.75 39.929688 85.304688 40.441406 C 84.859375 40.953125 84.59375 41.785156 84.503906 42.929688 L 89.855469 42.929688 C 89.773438 42.015625 89.5 41.246094 89.046875 40.617188 C 88.59375 39.988281 87.964844 39.671875 87.167969 39.671875 Z M 87.167969 39.671875 " clip-rule="nonzero"/></clipPath><clipPath id="1785e0fdb2"><path d="M 62.003906 37.78125 L 65.347656 37.78125 L 65.347656 51 L 62.003906 51 Z M 62.003906 37.78125 " clip-rule="nonzero"/></clipPath><clipPath id="bd390d305b"><path d="M 63.628906 37.78125 C 64.527344 37.78125 65.257812 38.511719 65.257812 39.414062 L 65.257812 49.171875 C 65.257812 50.074219 64.527344 50.804688 63.628906 50.804688 C 62.734375 50.804688 62.003906 50.074219 62.003906 49.171875 L 62.003906 39.414062 C 62.003906 38.511719 62.734375 37.78125 63.628906 37.78125 Z M 63.628906 37.78125 " clip-rule="nonzero"/></clipPath><clipPath id="c2f086add3"><path d="M 61.964844 32.691406 L 65.308594 32.691406 L 65.308594 36.042969 L 61.964844 36.042969 Z M 61.964844 32.691406 " clip-rule="nonzero"/></clipPath><clipPath id="5b0034386f"><path d="M 63.628906 32.691406 C 64.550781 32.691406 65.296875 33.4375 65.296875 34.359375 C 65.296875 35.285156 64.550781 36.03125 63.628906 36.03125 C 62.710938 36.03125 61.964844 35.285156 61.964844 34.359375 C 61.964844 33.4375 62.710938 32.691406 63.628906 32.691406 Z M 63.628906 32.691406 " clip-rule="nonzero"/></clipPath><clipPath id="9e43b4373c"><path d="M 55.667969 32.691406 L 59 32.691406 L 59 50.804688 L 55.667969 50.804688 Z M 55.667969 32.691406 " clip-rule="nonzero"/></clipPath><clipPath id="7a0f25301b"><path d="M 57.292969 32.691406 C 58.191406 32.691406 58.917969 33.421875 58.917969 34.320312 L 58.917969 49.171875 C 58.917969 50.074219 58.191406 50.804688 57.292969 50.804688 C 56.394531 50.804688 55.667969 50.074219 55.667969 49.171875 L 55.667969 34.320312 C 55.667969 33.421875 56.394531 32.691406 57.292969 32.691406 Z M 57.292969 32.691406 " clip-rule="nonzero"/></clipPath><clipPath id="8c5a283c8b"><path d="M 67.578125 37.039062 L 80.28125 37.039062 L 80.28125 51 L 67.578125 51 Z M 67.578125 37.039062 " clip-rule="nonzero"/></clipPath><clipPath id="8cf85b59df"><path d="M 78.433594 37.039062 C 79.566406 37.039062 80.347656 38.175781 79.941406 39.238281 L 78.375 43.347656 L 75.929688 49.761719 C 75.691406 50.390625 75.089844 50.804688 74.421875 50.804688 L 73.207031 50.804688 C 72.539062 50.804688 71.9375 50.390625 71.699219 49.761719 L 69.980469 45.257812 L 67.6875 39.238281 C 67.28125 38.175781 68.0625 37.039062 69.195312 37.039062 C 69.894531 37.039062 70.511719 37.488281 70.730469 38.152344 L 71.980469 41.953125 L 73.800781 47.488281 L 75.335938 42.824219 L 75.828125 41.320312 L 76.871094 38.152344 C 77.089844 37.484375 77.707031 37.039062 78.40625 37.039062 Z M 78.433594 37.039062 " clip-rule="nonzero"/></clipPath><clipPath id="65fb9ea297"><path d="M 113.71875 37.039062 L 120.40625 37.039062 L 120.40625 51 L 113.71875 51 Z M 113.71875 37.039062 " clip-rule="nonzero"/></clipPath><clipPath id="b03f609f9a"><path d="M 120.058594 37.039062 L 114.722656 50.804688 L 113.71875 50.804688 L 119.035156 37.039062 Z M 120.058594 37.039062 " clip-rule="nonzero"/></clipPath><clipPath id="6a0e948433"><path d="M 132.382812 37.023438 L 133.40625 37.023438 L 133.40625 39.390625 L 132.382812 39.390625 Z M 128.949219 37.023438 L 129.972656 37.023438 L 129.972656 39.390625 L 128.949219 39.390625 Z M 128.949219 39.390625 L 133.40625 39.390625 L 133.40625 40.355469 L 128.949219 40.355469 Z M 128.949219 40.355469 L 129.972656 40.355469 L 129.972656 42.722656 L 128.949219 42.722656 Z M 132.382812 40.355469 L 133.40625 40.355469 L 133.40625 42.722656 L 132.382812 42.722656 Z M 132.382812 40.355469 " clip-rule="nonzero"/></clipPath><clipPath id="3d78ca71b5"><path d="M 135.230469 37.023438 L 141 37.023438 L 141 43 L 135.230469 43 Z M 135.230469 37.023438 " clip-rule="nonzero"/></clipPath><clipPath id="727a40af41"><path d="M 138.609375 37.023438 L 140.867188 42.722656 L 139.769531 42.722656 L 139.25 41.347656 L 136.84375 41.347656 L 136.328125 42.722656 L 135.230469 42.722656 L 137.484375 37.023438 Z M 138.046875 38.1875 L 137.195312 40.425781 L 138.890625 40.425781 Z M 138.046875 38.1875 " clip-rule="nonzero"/></clipPath><clipPath id="15f61d628e"><path d="M 142.679688 37.023438 L 147 37.023438 L 147 43 L 142.679688 43 Z M 142.679688 37.023438 " clip-rule="nonzero"/></clipPath><clipPath id="6fbaa593bc"><path d="M 144.804688 37.023438 C 145.480469 37.023438 145.996094 37.191406 146.363281 37.519531 C 146.730469 37.851562 146.914062 38.324219 146.914062 38.933594 C 146.914062 39.546875 146.730469 40.015625 146.363281 40.347656 C 145.996094 40.675781 145.476562 40.839844 144.804688 40.839844 L 143.703125 40.839844 L 143.703125 42.722656 L 142.679688 42.722656 L 142.679688 37.023438 Z M 144.726562 37.960938 L 143.703125 37.960938 L 143.703125 39.917969 L 144.726562 39.917969 C 145.175781 39.917969 145.484375 39.835938 145.644531 39.671875 C 145.808594 39.503906 145.890625 39.257812 145.890625 38.933594 C 145.890625 38.613281 145.808594 38.371094 145.644531 38.207031 C 145.480469 38.042969 145.175781 37.960938 144.726562 37.960938 Z M 144.726562 37.960938 " clip-rule="nonzero"/></clipPath><clipPath id="eef0781e13"><path d="M 148.808594 37.023438 L 153.488281 37.023438 L 153.488281 43 L 148.808594 43 Z M 148.808594 37.023438 " clip-rule="nonzero"/></clipPath><clipPath id="c7cfcc993c"><path d="M 150.933594 37.023438 C 151.605469 37.023438 152.125 37.191406 152.492188 37.519531 C 152.859375 37.851562 153.042969 38.324219 153.042969 38.933594 C 153.042969 39.546875 152.859375 40.015625 152.492188 40.347656 C 152.125 40.675781 151.605469 40.839844 150.933594 40.839844 L 149.832031 40.839844 L 149.832031 42.722656 L 148.808594 42.722656 L 148.808594 37.023438 Z M 150.855469 37.960938 L 149.832031 37.960938 L 149.832031 39.917969 L 150.855469 39.917969 C 151.304688 39.917969 151.609375 39.835938 151.773438 39.671875 C 151.9375 39.503906 152.019531 39.257812 152.019531 38.933594 C 152.019531 38.613281 151.9375 38.371094 151.769531 38.207031 C 151.605469 38.042969 151.300781 37.960938 150.855469 37.960938 Z M 150.855469 37.960938 " clip-rule="nonzero"/></clipPath><clipPath id="c0c9f03038"><path d="M 154.339844 37.023438 L 160 37.023438 L 160 43 L 154.339844 43 Z M 154.339844 37.023438 " clip-rule="nonzero"/></clipPath><clipPath id="828b600e41"><path d="M 155.574219 37.023438 L 157.082031 39.339844 L 158.578125 37.023438 L 159.8125 37.023438 L 157.59375 40.277344 L 157.59375 42.722656 L 156.570312 42.722656 L 156.570312 40.277344 L 154.339844 37.023438 Z M 155.574219 37.023438 " clip-rule="nonzero"/></clipPath><clipPath id="97cfebd478"><path d="M 123.296875 44.964844 L 127.976562 44.964844 L 127.976562 51 L 123.296875 51 Z M 123.296875 44.964844 " clip-rule="nonzero"/></clipPath><clipPath id="2301ca233d"><path d="M 125.945312 44.964844 C 126.527344 44.964844 127.097656 45.074219 127.667969 45.300781 L 127.667969 46.261719 C 127.128906 46.011719 126.582031 45.882812 126.039062 45.882812 C 125.785156 45.882812 125.566406 45.90625 125.382812 45.953125 C 125.203125 46 125.023438 46.089844 124.851562 46.21875 C 124.679688 46.347656 124.546875 46.554688 124.457031 46.832031 C 124.367188 47.109375 124.320312 47.460938 124.320312 47.882812 C 124.320312 48.304688 124.367188 48.65625 124.457031 48.933594 C 124.546875 49.210938 124.679688 49.417969 124.851562 49.546875 C 125.023438 49.679688 125.203125 49.765625 125.382812 49.8125 C 125.566406 49.859375 125.785156 49.882812 126.039062 49.882812 C 126.582031 49.882812 127.128906 49.757812 127.667969 49.503906 L 127.667969 50.460938 C 127.097656 50.691406 126.527344 50.804688 125.945312 50.804688 C 125.679688 50.804688 125.433594 50.78125 125.203125 50.738281 C 124.972656 50.691406 124.738281 50.605469 124.496094 50.472656 C 124.253906 50.339844 124.050781 50.167969 123.878906 49.957031 C 123.707031 49.75 123.570312 49.46875 123.460938 49.113281 C 123.351562 48.761719 123.296875 48.351562 123.296875 47.882812 C 123.296875 47.414062 123.351562 47.003906 123.460938 46.652344 C 123.570312 46.300781 123.707031 46.019531 123.878906 45.808594 C 124.050781 45.597656 124.253906 45.425781 124.496094 45.292969 C 124.738281 45.164062 124.972656 45.074219 125.203125 45.03125 C 125.433594 44.984375 125.679688 44.964844 125.945312 44.964844 Z M 125.945312 44.964844 " clip-rule="nonzero"/></clipPath><clipPath id="b8d2230857"><path d="M 129.375 44.972656 L 134.722656 44.972656 L 134.722656 51 L 129.375 51 Z M 129.375 44.972656 " clip-rule="nonzero"/></clipPath><clipPath id="91803397a4"><path d="M 132.023438 44.972656 C 132.289062 44.972656 132.539062 44.992188 132.769531 45.039062 C 133 45.082031 133.234375 45.171875 133.476562 45.304688 C 133.714844 45.433594 133.921875 45.605469 134.097656 45.816406 C 134.269531 46.023438 134.410156 46.304688 134.519531 46.660156 C 134.628906 47.011719 134.679688 47.421875 134.679688 47.886719 C 134.679688 48.351562 134.628906 48.757812 134.519531 49.113281 C 134.410156 49.472656 134.269531 49.753906 134.097656 49.960938 C 133.921875 50.167969 133.714844 50.339844 133.476562 50.472656 C 133.234375 50.605469 133 50.691406 132.769531 50.738281 C 132.539062 50.78125 132.289062 50.804688 132.023438 50.804688 C 131.757812 50.804688 131.511719 50.78125 131.28125 50.738281 C 131.050781 50.691406 130.816406 50.605469 130.574219 50.472656 C 130.332031 50.339844 130.125 50.167969 129.957031 49.960938 C 129.785156 49.753906 129.644531 49.472656 129.539062 49.113281 C 129.429688 48.757812 129.375 48.351562 129.375 47.886719 C 129.375 47.421875 129.429688 47.011719 129.539062 46.660156 C 129.644531 46.304688 129.785156 46.023438 129.957031 45.816406 C 130.125 45.605469 130.332031 45.433594 130.574219 45.304688 C 130.816406 45.171875 131.050781 45.082031 131.28125 45.039062 C 131.511719 44.992188 131.757812 44.972656 132.023438 44.972656 Z M 132.023438 45.875 C 131.835938 45.875 131.671875 45.890625 131.53125 45.914062 C 131.386719 45.9375 131.242188 45.992188 131.089844 46.078125 C 130.9375 46.160156 130.820312 46.273438 130.726562 46.414062 C 130.632812 46.554688 130.554688 46.75 130.492188 46.996094 C 130.429688 47.242188 130.398438 47.539062 130.398438 47.878906 C 130.398438 48.304688 130.441406 48.660156 130.523438 48.941406 C 130.609375 49.222656 130.734375 49.425781 130.898438 49.558594 C 131.066406 49.691406 131.234375 49.78125 131.40625 49.828125 C 131.582031 49.875 131.785156 49.898438 132.023438 49.898438 C 132.21875 49.898438 132.386719 49.886719 132.527344 49.859375 C 132.667969 49.835938 132.8125 49.78125 132.964844 49.699219 C 133.113281 49.617188 133.234375 49.503906 133.328125 49.359375 C 133.421875 49.214844 133.503906 49.015625 133.5625 48.765625 C 133.625 48.515625 133.65625 48.222656 133.65625 47.878906 C 133.65625 47.457031 133.617188 47.105469 133.53125 46.828125 C 133.445312 46.546875 133.320312 46.339844 133.152344 46.207031 C 132.984375 46.074219 132.816406 45.988281 132.644531 45.945312 C 132.476562 45.898438 132.269531 45.875 132.023438 45.875 Z M 132.023438 45.875 " clip-rule="nonzero"/></clipPath><clipPath id="a5ab28ecd9"><path d="M 136.746094 45.105469 L 141.425781 45.105469 L 141.425781 51 L 136.746094 51 Z M 136.746094 45.105469 " clip-rule="nonzero"/></clipPath><clipPath id="52ac8cb109"><path d="M 138.707031 45.105469 C 139.585938 45.105469 140.253906 45.347656 140.707031 45.832031 C 141.164062 46.316406 141.390625 47.023438 141.390625 47.957031 C 141.390625 48.886719 141.164062 49.59375 140.710938 50.078125 C 140.257812 50.5625 139.589844 50.804688 138.707031 50.804688 L 136.746094 50.804688 L 136.746094 45.105469 Z M 138.703125 46.027344 L 137.769531 46.027344 L 137.769531 49.882812 L 138.703125 49.882812 C 139.292969 49.882812 139.71875 49.730469 139.980469 49.429688 C 140.238281 49.132812 140.367188 48.640625 140.367188 47.957031 C 140.367188 47.273438 140.238281 46.777344 139.980469 46.476562 C 139.71875 46.175781 139.292969 46.027344 138.703125 46.027344 Z M 138.703125 46.027344 " clip-rule="nonzero"/></clipPath><clipPath id="b3b71a47fd"><path d="M 143.421875 45.105469 L 147.199219 45.105469 L 147.199219 46.027344 L 143.421875 46.027344 Z M 143.421875 46.027344 L 144.445312 46.027344 L 144.445312 47.472656 L 143.421875 47.472656 Z M 143.421875 47.472656 L 146.835938 47.472656 L 146.835938 48.4375 L 143.421875 48.4375 Z M 143.421875 48.4375 L 144.445312 48.4375 L 144.445312 49.882812 L 143.421875 49.882812 Z M 143.421875 49.882812 L 147.199219 49.882812 L 147.199219 50.804688 L 143.421875 50.804688 Z M 143.421875 49.882812 " clip-rule="nonzero"/></clipPath><clipPath id="b73bb1bee1"><path d="M 149.226562 45.105469 L 153.910156 45.105469 L 153.910156 51 L 149.226562 51 Z M 149.226562 45.105469 " clip-rule="nonzero"/></clipPath><clipPath id="c363b7be68"><path d="M 151.410156 45.105469 C 152.074219 45.105469 152.589844 45.261719 152.960938 45.582031 C 153.328125 45.898438 153.515625 46.351562 153.515625 46.9375 C 153.515625 47.808594 153.101562 48.367188 152.265625 48.625 L 153.761719 50.804688 L 152.523438 50.804688 L 151.167969 48.792969 L 150.25 48.792969 L 150.25 50.804688 L 149.226562 50.804688 L 149.226562 45.105469 Z M 151.382812 46.074219 L 150.25 46.074219 L 150.25 47.855469 L 151.382812 47.855469 C 151.726562 47.855469 152 47.792969 152.195312 47.667969 C 152.394531 47.542969 152.492188 47.308594 152.492188 46.964844 C 152.492188 46.613281 152.394531 46.378906 152.195312 46.257812 C 152 46.132812 151.726562 46.074219 151.382812 46.074219 Z M 151.382812 46.074219 " clip-rule="nonzero"/></clipPath><clipPath id="899cafb629"><path d="M 155.5 44.972656 L 159.511719 44.972656 L 159.511719 51 L 155.5 51 Z M 155.5 44.972656 " clip-rule="nonzero"/></clipPath><clipPath id="890dfc701b"><path d="M 157.527344 44.972656 C 158.035156 44.972656 158.542969 45.105469 159.050781 45.367188 L 159.050781 46.371094 C 158.613281 46.082031 158.144531 45.9375 157.644531 45.9375 C 157.332031 45.9375 157.066406 45.992188 156.851562 46.101562 C 156.632812 46.210938 156.523438 46.382812 156.523438 46.613281 C 156.523438 46.804688 156.625 46.953125 156.820312 47.058594 C 157.019531 47.164062 157.257812 47.257812 157.539062 47.332031 C 157.820312 47.402344 158.105469 47.496094 158.386719 47.605469 C 158.671875 47.71875 158.914062 47.910156 159.113281 48.183594 C 159.308594 48.460938 159.410156 48.8125 159.410156 49.246094 C 159.410156 49.703125 159.21875 50.078125 158.839844 50.371094 C 158.460938 50.660156 157.996094 50.804688 157.453125 50.804688 C 156.730469 50.804688 156.105469 50.644531 155.574219 50.324219 L 155.574219 49.289062 C 156.0625 49.652344 156.609375 49.835938 157.214844 49.835938 C 157.996094 49.835938 158.386719 49.617188 158.386719 49.179688 C 158.386719 48.984375 158.316406 48.820312 158.175781 48.6875 C 158.035156 48.558594 157.855469 48.460938 157.636719 48.398438 C 157.421875 48.335938 157.191406 48.261719 156.945312 48.175781 C 156.695312 48.09375 156.464844 48 156.25 47.898438 C 156.035156 47.800781 155.855469 47.644531 155.710938 47.429688 C 155.570312 47.21875 155.5 46.953125 155.5 46.640625 C 155.5 46.089844 155.695312 45.671875 156.078125 45.390625 C 156.464844 45.109375 156.945312 44.972656 157.527344 44.972656 Z M 157.527344 44.972656 " clip-rule="nonzero"/></clipPath><clipPath id="2db191eedc"><path d="M 28.972656 31.828125 L 41 31.828125 L 41 51 L 28.972656 51 Z M 28.972656 31.828125 " clip-rule="nonzero"/></clipPath><clipPath id="566c2d4783"><path d="M 30.597656 31.828125 C 31.496094 31.828125 32.222656 32.5625 32.222656 33.460938 L 32.222656 37.242188 C 32.976562 37.105469 33.695312 37.039062 34.378906 37.039062 C 36.367188 37.039062 37.894531 37.617188 38.960938 38.777344 C 40.027344 39.9375 40.5625 41.609375 40.5625 43.789062 C 40.5625 44.988281 40.40625 45.992188 40.09375 46.910156 C 39.78125 47.824219 39.414062 48.515625 38.988281 48.992188 C 38.5625 49.464844 38.050781 49.847656 37.457031 50.148438 C 36.863281 50.445312 36.347656 50.628906 35.910156 50.699219 C 35.472656 50.769531 35.03125 50.804688 34.589844 50.804688 C 32.683594 50.804688 31.269531 50.363281 30.351562 49.476562 C 29.429688 48.59375 28.972656 47.527344 28.972656 46.285156 L 28.972656 33.460938 C 28.972656 32.5625 29.699219 31.828125 30.597656 31.828125 Z M 34.261719 39.554688 C 33.480469 39.554688 32.789062 39.628906 32.1875 39.777344 L 32.1875 46.589844 C 32.1875 47.554688 32.988281 48.035156 34.589844 48.035156 C 35.609375 48.035156 36.324219 47.6875 36.734375 46.992188 C 37.140625 46.292969 37.347656 45.207031 37.347656 43.617188 C 37.347656 42.113281 37.082031 41.058594 36.554688 40.457031 C 36.027344 39.855469 35.265625 39.554688 34.261719 39.554688 Z M 34.261719 39.554688 " clip-rule="nonzero"/></clipPath></defs><g clip-path="url(#e1215e92d1)"><path fill="#ffffff" d="M 0.496094 0 L 164.503906 0 L 164.503906 89.457031 L 0.496094 89.457031 Z M 0.496094 0 " fill-opacity="1" fill-rule="nonzero"/><path fill="#ffffff" d="M 0.496094 0 L 164.503906 0 L 164.503906 82.003906 L 0.496094 82.003906 Z M 0.496094 0 " fill-opacity="1" fill-rule="nonzero"/><path fill="#ffffff" d="M 0.496094 0 L 164.503906 0 L 164.503906 82.003906 L 0.496094 82.003906 Z M 0.496094 0 " fill-opacity="1" fill-rule="nonzero"/></g><g clip-path="url(#74d9be158b)"><g clip-path="url(#09a81af4cc)"><path fill="#0fbccd" d="M 4.609375 30.972656 L 22.621094 30.972656 L 22.621094 50.804688 L 4.609375 50.804688 Z M 4.609375 30.972656 " fill-opacity="1" fill-rule="nonzero"/></g></g><g clip-path="url(#749ea0f742)"><g clip-path="url(#1a11d9e012)"><path fill="#2a2b2e" d="M 95.15625 37.039062 L 107.367188 37.039062 L 107.367188 50.804688 L 95.15625 50.804688 Z M 95.15625 37.039062 " fill-opacity="1" fill-rule="nonzero"/></g></g><g clip-path="url(#0d471bce01)"><g clip-path="url(#357ad61cd3)"><path fill="#2a2b2e" d="M 42.058594 37.039062 L 53.917969 37.039062 L 53.917969 50.804688 L 42.058594 50.804688 Z M 42.058594 37.039062 " fill-opacity="1" fill-rule="nonzero"/></g></g><g clip-path="url(#21a611d105)"><g clip-path="url(#29e7e72c33)"><path fill="#2a2b2e" d="M 81.308594 37.039062 L 93.171875 37.039062 L 93.171875 50.804688 L 81.308594 50.804688 Z M 81.308594 37.039062 " fill-opacity="1" fill-rule="nonzero"/></g></g><g clip-path="url(#1785e0fdb2)"><g clip-path="url(#bd390d305b)"><path fill="#2a2b2e" d="M 62.003906 37.78125 L 65.257812 37.78125 L 65.257812 50.804688 L 62.003906 50.804688 Z M 62.003906 37.78125 " fill-opacity="1" fill-rule="nonzero"/></g></g><g clip-path="url(#c2f086add3)"><g clip-path="url(#5b0034386f)"><path fill="#2a2b2e" d="M 61.964844 32.691406 L 65.296875 32.691406 L 65.296875 36.03125 L 61.964844 36.03125 Z M 61.964844 32.691406 " fill-opacity="1" fill-rule="nonzero"/></g></g><g clip-path="url(#9e43b4373c)"><g clip-path="url(#7a0f25301b)"><path fill="#2a2b2e" d="M 55.667969 32.691406 L 58.917969 32.691406 L 58.917969 50.804688 L 55.667969 50.804688 Z M 55.667969 32.691406 " fill-opacity="1" fill-rule="nonzero"/></g></g><g clip-path="url(#8c5a283c8b)"><g clip-path="url(#8cf85b59df)"><path fill="#2a2b2e" d="M 67.578125 37.039062 L 80.050781 37.039062 L 80.050781 50.804688 L 67.578125 50.804688 Z M 67.578125 37.039062 " fill-opacity="1" fill-rule="nonzero"/></g></g><g clip-path="url(#65fb9ea297)"><g clip-path="url(#b03f609f9a)"><path fill="#0fbccd" d="M 113.71875 37.039062 L 120.058594 37.039062 L 120.058594 50.804688 L 113.71875 50.804688 Z M 113.71875 37.039062 " fill-opacity="1" fill-rule="nonzero"/></g></g><g clip-path="url(#6a0e948433)"><path fill="#0fbccd" d="M 128.949219 37.023438 L 133.40625 37.023438 L 133.40625 42.722656 L 128.949219 42.722656 Z M 128.949219 37.023438 " fill-opacity="1" fill-rule="nonzero"/></g><g clip-path="url(#3d78ca71b5)"><g clip-path="url(#727a40af41)"><path fill="#0fbccd" d="M 135.230469 37.023438 L 140.867188 37.023438 L 140.867188 42.722656 L 135.230469 42.722656 Z M 135.230469 37.023438 " fill-opacity="1" fill-rule="nonzero"/></g></g><g clip-path="url(#15f61d628e)"><g clip-path="url(#6fbaa593bc)"><path fill="#0fbccd" d="M 142.679688 37.023438 L 146.914062 37.023438 L 146.914062 42.722656 L 142.679688 42.722656 Z M 142.679688 37.023438 " fill-opacity="1" fill-rule="nonzero"/></g></g><g clip-path="url(#eef0781e13)"><g clip-path="url(#c7cfcc993c)"><path fill="#0fbccd" d="M 148.808594 37.023438 L 153.042969 37.023438 L 153.042969 42.722656 L 148.808594 42.722656 Z M 148.808594 37.023438 " fill-opacity="1" fill-rule="nonzero"/></g></g><g clip-path="url(#c0c9f03038)"><g clip-path="url(#828b600e41)"><path fill="#0fbccd" d="M 154.339844 37.023438 L 159.8125 37.023438 L 159.8125 42.722656 L 154.339844 42.722656 Z M 154.339844 37.023438 " fill-opacity="1" fill-rule="nonzero"/></g></g><g clip-path="url(#97cfebd478)"><g clip-path="url(#2301ca233d)"><path fill="#1eb6cb" d="M 123.296875 44.964844 L 127.667969 44.964844 L 127.667969 50.804688 L 123.296875 50.804688 Z M 123.296875 44.964844 " fill-opacity="1" fill-rule="nonzero"/></g></g><g clip-path="url(#b8d2230857)"><g clip-path="url(#91803397a4)"><path fill="#1eb6cb" d="M 129.375 44.972656 L 134.679688 44.972656 L 134.679688 50.804688 L 129.375 50.804688 Z M 129.375 44.972656 " fill-opacity="1" fill-rule="nonzero"/></g></g><g clip-path="url(#a5ab28ecd9)"><g clip-path="url(#52ac8cb109)"><path fill="#0fbccd" d="M 136.746094 45.105469 L 141.390625 45.105469 L 141.390625 50.804688 L 136.746094 50.804688 Z M 136.746094 45.105469 " fill-opacity="1" fill-rule="nonzero"/></g></g><g clip-path="url(#b3b71a47fd)"><path fill="#0fbccd" d="M 143.421875 45.105469 L 147.199219 45.105469 L 147.199219 50.804688 L 143.421875 50.804688 Z M 143.421875 45.105469 " fill-opacity="1" fill-rule="nonzero"/></g><g clip-path="url(#b73bb1bee1)"><g clip-path="url(#c363b7be68)"><path fill="#0fbccd" d="M 149.226562 45.105469 L 153.761719 45.105469 L 153.761719 50.804688 L 149.226562 50.804688 Z M 149.226562 45.105469 " fill-opacity="1" fill-rule="nonzero"/></g></g><g clip-path="url(#899cafb629)"><g clip-path="url(#890dfc701b)"><path fill="#0fbccd" d="M 155.5 44.972656 L 159.410156 44.972656 L 159.410156 50.804688 L 155.5 50.804688 Z M 155.5 44.972656 " fill-opacity="1" fill-rule="nonzero"/></g></g><g clip-path="url(#2db191eedc)"><g clip-path="url(#566c2d4783)"><path fill="#2a2b2e" d="M 28.972656 31.828125 L 40.5625 31.828125 L 40.5625 50.804688 L 28.972656 50.804688 Z M 28.972656 31.828125 " fill-opacity="1" fill-rule="nonzero"/></g></g></svg>