<svg xmlns="http://www.w3.org/2000/svg" xmlns:xlink="http://www.w3.org/1999/xlink" width="220" zoomAndPan="magnify" viewBox="0 0 165 82.499998" height="110" preserveAspectRatio="xMidYMid meet" version="1.0"><defs><clipPath id="fb53952a8e"><path d="M 0.496094 0 L 164.503906 0 L 164.503906 82.003906 L 0.496094 82.003906 Z M 0.496094 0 " clip-rule="nonzero"/></clipPath></defs><g clip-path="url(#fb53952a8e)"><path fill="#ffffff" d="M 0.496094 0 L 164.503906 0 L 164.503906 89.457031 L 0.496094 89.457031 Z M 0.496094 0 " fill-opacity="1" fill-rule="nonzero"/><path fill="#ffffff" d="M 0.496094 0 L 164.503906 0 L 164.503906 82.003906 L 0.496094 82.003906 Z M 0.496094 0 " fill-opacity="1" fill-rule="nonzero"/><path fill="#ffffff" d="M 0.496094 0 L 164.503906 0 L 164.503906 82.003906 L 0.496094 82.003906 Z M 0.496094 0 " fill-opacity="1" fill-rule="nonzero"/></g><path fill="#000000" d="M 9.5 55.542969 L 26.34375 55.542969 C 33.773438 55.542969 38.320312 52.441406 38.320312 47.386719 C 38.320312 43.796875 36.007812 41.265625 32.230469 40.734375 L 32.230469 40.574219 C 35.359375 40.042969 37.304688 37.839844 37.304688 34.738281 C 37.304688 29.925781 32.839844 26.988281 25.535156 26.988281 L 9.5 26.988281 Z M 18.632812 38.410156 L 18.632812 32.699219 L 24.316406 32.699219 C 26.589844 32.699219 27.96875 33.800781 27.96875 35.554688 C 27.96875 37.308594 26.589844 38.410156 24.316406 38.410156 Z M 18.632812 49.628906 L 18.632812 43.917969 L 25.128906 43.917969 C 27.402344 43.917969 28.78125 45.019531 28.78125 46.773438 C 28.78125 48.527344 27.402344 49.628906 25.128906 49.628906 Z M 18.632812 49.628906 " fill-opacity="1" fill-rule="nonzero"/><path fill="#000000" d="M 65.132812 33.71875 L 65.132812 26.988281 L 41.183594 26.988281 L 41.183594 55.542969 L 65.335938 55.542969 L 65.335938 48.609375 L 50.316406 48.609375 L 50.316406 44.121094 L 62.648438 44.121094 L 62.648438 38.003906 L 50.316406 38.003906 L 50.316406 33.71875 Z M 65.132812 33.71875 " fill-opacity="1" fill-rule="nonzero"/><path fill="#000000" d="M 77.917969 48.609375 L 77.917969 26.988281 L 68.785156 26.988281 L 68.785156 55.542969 L 89.566406 55.542969 L 89.566406 48.609375 Z M 77.917969 48.609375 " fill-opacity="1" fill-rule="nonzero"/><path fill="#000000" d="M 123.484375 55.542969 L 111.222656 38.898438 L 123.078125 26.988281 L 112.320312 26.988281 L 101.96875 38.410156 L 101.96875 26.988281 L 92.632812 26.988281 L 92.632812 55.542969 L 101.96875 55.542969 L 101.96875 48.199219 L 105.09375 45.058594 L 112.523438 55.542969 Z M 123.484375 55.542969 " fill-opacity="1" fill-rule="nonzero"/><path fill="#000000" d="M 146.484375 55.542969 L 156.144531 55.542969 L 143.761719 26.988281 L 132.398438 26.988281 L 120.015625 55.542969 L 129.59375 55.542969 L 131.910156 49.832031 L 144.167969 49.832031 Z M 134.589844 43.304688 L 138.078125 34.738281 L 141.53125 43.304688 Z M 134.589844 43.304688 " fill-opacity="1" fill-rule="nonzero"/></svg>