<svg xmlns="http://www.w3.org/2000/svg" xmlns:xlink="http://www.w3.org/1999/xlink" width="220" zoomAndPan="magnify" viewBox="0 0 165 82.499998" height="110" preserveAspectRatio="xMidYMid meet" version="1.0"><defs><clipPath id="1f4008f8a0"><path d="M 0.496094 0 L 164.503906 0 L 164.503906 82.003906 L 0.496094 82.003906 Z M 0.496094 0 " clip-rule="nonzero"/></clipPath></defs><g clip-path="url(#1f4008f8a0)"><path fill="#ffffff" d="M 0.496094 0 L 164.503906 0 L 164.503906 82.003906 L 0.496094 82.003906 Z M 0.496094 0 " fill-opacity="1" fill-rule="nonzero"/></g><path fill="#0a45fa" d="M 15.820312 41.457031 C 14.050781 41.457031 12.570312 40.84375 11.378906 39.644531 C 10.21875 38.386719 9.640625 36.863281 9.640625 35.019531 C 9.640625 33.144531 10.21875 31.625 11.378906 30.394531 C 12.570312 29.164062 14.019531 28.582031 15.820312 28.582031 C 17.039062 28.582031 18.113281 28.902344 19.039062 29.515625 C 19.96875 30.132812 20.636719 30.980469 21.101562 32.0625 L 19.039062 32.941406 C 18.402344 31.417969 17.300781 30.660156 15.675781 30.660156 C 14.660156 30.660156 13.757812 31.070312 13.003906 31.917969 C 12.277344 32.765625 11.902344 33.789062 11.902344 35.019531 C 11.902344 36.25 12.277344 37.300781 13.003906 38.121094 C 13.757812 38.96875 14.660156 39.378906 15.675781 39.378906 C 17.328125 39.378906 18.488281 38.621094 19.15625 37.097656 L 21.160156 37.976562 C 20.722656 39.058594 20.027344 39.90625 19.097656 40.523438 C 18.140625 41.136719 17.066406 41.457031 15.820312 41.457031 " fill-opacity="1" fill-rule="nonzero"/><path fill="#0a45fa" d="M 22.289062 35.019531 C 22.289062 33.144531 22.871094 31.625 24.03125 30.394531 C 25.222656 29.164062 26.671875 28.582031 28.46875 28.582031 C 30.242188 28.582031 31.71875 29.195312 32.882812 30.394531 C 34.070312 31.625 34.652344 33.144531 34.652344 35.019531 C 34.652344 36.890625 34.070312 38.445312 32.882812 39.644531 C 31.71875 40.871094 30.242188 41.457031 28.46875 41.457031 C 26.699219 41.457031 25.222656 40.84375 24.03125 39.644531 C 22.871094 38.414062 22.289062 36.863281 22.289062 35.019531 M 24.554688 35.019531 C 24.554688 36.308594 24.929688 37.359375 25.683594 38.179688 C 26.4375 39 27.367188 39.378906 28.46875 39.378906 C 29.574219 39.378906 30.5 38.96875 31.257812 38.179688 C 32.011719 37.359375 32.386719 36.308594 32.386719 35.019531 C 32.386719 33.730469 32.011719 32.679688 31.257812 31.886719 C 30.5 31.070312 29.542969 30.660156 28.46875 30.660156 C 27.367188 30.660156 26.4375 31.070312 25.683594 31.886719 C 24.929688 32.679688 24.554688 33.730469 24.554688 35.019531 " fill-opacity="1" fill-rule="nonzero"/><path fill="#0a45fa" d="M 36.449219 28.960938 L 38.597656 28.960938 L 38.597656 30.628906 L 38.683594 30.628906 C 39.03125 30.042969 39.554688 29.546875 40.25 29.136719 C 40.949219 28.757812 41.703125 28.550781 42.457031 28.550781 C 43.9375 28.550781 45.066406 28.992188 45.851562 29.808594 C 46.636719 30.660156 47.042969 31.859375 47.042969 33.4375 L 47.042969 41.046875 L 44.777344 41.046875 L 44.777344 33.613281 C 44.71875 31.625 43.734375 30.660156 41.820312 30.660156 C 40.917969 30.660156 40.164062 31.039062 39.554688 31.769531 C 38.945312 32.503906 38.65625 33.378906 38.65625 34.40625 L 38.65625 41.105469 L 36.390625 41.105469 L 36.390625 28.960938 Z M 36.449219 28.960938 " fill-opacity="1" fill-rule="nonzero"/><path fill="#0a45fa" d="M 60.851562 23.285156 L 60.851562 41.078125 L 58.589844 41.078125 L 58.589844 25.359375 L 55.222656 25.359375 C 53.890625 25.359375 53.222656 26.121094 53.222656 27.644531 L 53.222656 28.992188 L 56.355469 28.992188 L 56.355469 31.070312 L 53.222656 31.070312 L 53.222656 41.105469 L 50.957031 41.105469 L 50.957031 31.039062 L 48.695312 31.039062 L 48.695312 28.960938 L 50.957031 28.960938 L 50.957031 27.351562 C 50.957031 26.121094 51.363281 25.15625 52.148438 24.394531 C 52.933594 23.632812 53.949219 23.285156 55.222656 23.285156 Z M 60.851562 23.285156 " fill-opacity="1" fill-rule="nonzero"/><path fill="#0a45fa" d="M 74.113281 41.046875 L 71.96875 41.046875 L 71.96875 39.378906 L 71.878906 39.378906 C 71.53125 39.964844 71.007812 40.464844 70.3125 40.871094 C 69.617188 41.253906 68.863281 41.457031 68.109375 41.457031 C 66.628906 41.457031 65.496094 41.046875 64.710938 40.199219 C 63.929688 39.351562 63.523438 38.152344 63.523438 36.570312 L 63.523438 28.960938 L 65.785156 28.960938 L 65.785156 36.425781 C 65.84375 38.414062 66.832031 39.378906 68.746094 39.378906 C 69.644531 39.378906 70.398438 39 71.007812 38.269531 C 71.617188 37.535156 71.910156 36.660156 71.910156 35.632812 L 71.910156 28.960938 L 74.171875 28.960938 L 74.171875 41.046875 Z M 74.113281 41.046875 " fill-opacity="1" fill-rule="nonzero"/><path fill="#0a45fa" d="M 86.910156 30.6875 C 86.910156 31.625 86.15625 32.414062 85.199219 32.414062 C 84.242188 32.414062 83.488281 31.652344 83.488281 30.6875 C 83.488281 29.75 84.242188 28.960938 85.199219 28.960938 C 86.15625 28.960938 86.910156 29.722656 86.910156 30.6875 " fill-opacity="1" fill-rule="nonzero"/><path fill="#0a45fa" d="M 75.855469 28.960938 L 78.378906 28.960938 L 86.910156 41.046875 L 84.269531 41.046875 L 81.308594 36.601562 L 78.378906 41.046875 L 75.738281 41.046875 L 79.976562 34.902344 Z M 75.855469 28.960938 " fill-opacity="1" fill-rule="nonzero"/><path fill="#969696" d="M 132.671875 46.460938 L 132.671875 50.0625 L 132.175781 50.0625 L 132.175781 46.460938 L 131.046875 46.460938 L 131.046875 45.964844 L 133.800781 45.964844 L 133.800781 46.460938 Z M 132.671875 46.460938 " fill-opacity="1" fill-rule="nonzero"/><path fill="#969696" d="M 134.875 50.0625 L 134.351562 50.0625 L 134.351562 45.964844 L 134.875 45.964844 L 136.296875 48.453125 L 137.71875 45.964844 L 138.242188 45.964844 L 138.242188 50.0625 L 137.71875 50.0625 L 137.71875 47.632812 L 137.75 46.960938 L 137.71875 46.960938 L 136.441406 49.183594 L 136.152344 49.183594 L 134.875 46.960938 L 134.847656 46.960938 L 134.875 47.632812 Z M 134.875 50.0625 " fill-opacity="1" fill-rule="nonzero"/><path fill="#969696" d="M 10.015625 47.3125 L 15.472656 47.3125 L 15.472656 48.308594 L 11.117188 48.308594 L 11.117188 51.144531 L 15.238281 51.144531 L 15.238281 52.140625 L 11.117188 52.140625 L 11.117188 55.183594 L 15.472656 55.183594 L 15.472656 56.179688 L 10.015625 56.179688 Z M 10.015625 47.3125 " fill-opacity="1" fill-rule="nonzero"/><path fill="#969696" d="M 16.082031 49.535156 L 17.210938 49.535156 L 19.011719 54.980469 L 19.097656 54.980469 L 20.898438 49.535156 L 22.027344 49.535156 L 19.589844 56.148438 L 18.519531 56.148438 Z M 16.082031 49.535156 " fill-opacity="1" fill-rule="nonzero"/><path fill="#969696" d="M 22.582031 47.546875 C 22.582031 47.136719 22.898438 46.8125 23.304688 46.8125 C 23.710938 46.8125 24.03125 47.136719 24.03125 47.546875 C 24.03125 47.957031 23.710938 48.277344 23.304688 48.277344 C 22.898438 48.277344 22.582031 47.925781 22.582031 47.546875 Z M 22.753906 49.535156 L 23.828125 49.535156 L 23.828125 56.148438 L 22.753906 56.148438 Z M 22.753906 49.535156 " fill-opacity="1" fill-rule="nonzero"/><path fill="#969696" d="M 24.816406 52.871094 C 24.816406 50.792969 25.886719 49.449219 27.570312 49.449219 C 28.46875 49.449219 29.253906 49.917969 29.632812 50.617188 L 29.71875 50.617188 L 29.71875 46.929688 L 30.792969 46.929688 L 30.792969 56.179688 L 29.71875 56.179688 L 29.71875 55.125 L 29.632812 55.125 C 29.226562 55.859375 28.5 56.296875 27.570312 56.296875 C 25.917969 56.296875 24.816406 54.921875 24.816406 52.871094 Z M 29.746094 52.871094 C 29.746094 51.320312 29.023438 50.382812 27.832031 50.382812 C 26.640625 50.382812 25.917969 51.320312 25.917969 52.871094 C 25.917969 54.421875 26.640625 55.359375 27.832031 55.359375 C 29.023438 55.332031 29.746094 54.394531 29.746094 52.871094 Z M 29.746094 52.871094 " fill-opacity="1" fill-rule="nonzero"/><path fill="#969696" d="M 31.808594 52.871094 C 31.808594 50.824219 32.96875 49.417969 34.738281 49.417969 C 36.507812 49.417969 37.609375 50.765625 37.609375 52.726562 L 37.609375 53.136719 L 32.882812 53.136719 C 32.910156 54.511719 33.664062 55.300781 34.824219 55.300781 C 35.726562 55.300781 36.277344 54.890625 36.449219 54.480469 L 36.480469 54.421875 L 37.554688 54.421875 L 37.554688 54.480469 C 37.320312 55.390625 36.390625 56.265625 34.855469 56.265625 C 32.9375 56.296875 31.808594 54.949219 31.808594 52.871094 Z M 32.910156 52.316406 L 36.539062 52.316406 C 36.421875 51 35.695312 50.382812 34.738281 50.382812 C 33.78125 50.382812 33.027344 51.058594 32.910156 52.316406 Z M 32.910156 52.316406 " fill-opacity="1" fill-rule="nonzero"/><path fill="#969696" d="M 38.597656 49.535156 L 39.671875 49.535156 L 39.671875 50.53125 L 39.757812 50.53125 C 40.078125 49.828125 40.714844 49.417969 41.671875 49.417969 C 43.152344 49.417969 43.964844 50.296875 43.964844 51.878906 L 43.964844 56.179688 L 42.890625 56.179688 L 42.890625 52.140625 C 42.890625 50.941406 42.398438 50.382812 41.355469 50.382812 C 40.308594 50.382812 39.640625 51.085938 39.640625 52.257812 L 39.640625 56.179688 L 38.570312 56.179688 Z M 38.597656 49.535156 " fill-opacity="1" fill-rule="nonzero"/><path fill="#969696" d="M 44.863281 52.84375 C 44.863281 50.765625 46.027344 49.417969 47.882812 49.417969 C 49.480469 49.417969 50.4375 50.355469 50.640625 51.527344 L 50.640625 51.554688 L 49.59375 51.554688 L 49.59375 51.527344 C 49.421875 50.882812 48.839844 50.355469 47.910156 50.355469 C 46.722656 50.355469 45.996094 51.320312 45.996094 52.8125 C 45.996094 54.335938 46.75 55.300781 47.910156 55.300781 C 48.78125 55.300781 49.363281 54.921875 49.59375 54.160156 L 49.59375 54.128906 L 50.640625 54.128906 L 50.640625 54.1875 C 50.378906 55.390625 49.480469 56.238281 47.910156 56.238281 C 46.054688 56.296875 44.863281 54.949219 44.863281 52.84375 Z M 44.863281 52.84375 " fill-opacity="1" fill-rule="nonzero"/><path fill="#969696" d="M 51.191406 52.871094 C 51.191406 50.824219 52.351562 49.417969 54.121094 49.417969 C 55.890625 49.417969 56.996094 50.765625 56.996094 52.726562 L 56.996094 53.136719 L 52.265625 53.136719 C 52.292969 54.511719 53.046875 55.300781 54.207031 55.300781 C 55.109375 55.300781 55.660156 54.890625 55.832031 54.480469 L 55.863281 54.421875 L 56.9375 54.421875 L 56.9375 54.480469 C 56.703125 55.390625 55.777344 56.265625 54.238281 56.265625 C 52.324219 56.296875 51.191406 54.949219 51.191406 52.871094 Z M 52.292969 52.316406 L 55.921875 52.316406 C 55.804688 51 55.078125 50.382812 54.121094 50.382812 C 53.164062 50.382812 52.410156 51.058594 52.292969 52.316406 Z M 52.292969 52.316406 " fill-opacity="1" fill-rule="nonzero"/><path fill="#969696" d="M 62.042969 55.125 L 61.957031 55.125 L 61.957031 56.179688 L 60.882812 56.179688 L 60.882812 46.929688 L 61.957031 46.929688 L 61.957031 50.617188 L 62.042969 50.617188 C 62.390625 49.917969 63.175781 49.449219 64.101562 49.449219 C 65.785156 49.449219 66.859375 50.792969 66.859375 52.871094 C 66.859375 54.949219 65.757812 56.296875 64.101562 56.296875 C 63.175781 56.296875 62.421875 55.859375 62.042969 55.125 Z M 65.757812 52.871094 C 65.757812 51.320312 65.03125 50.382812 63.84375 50.382812 C 62.652344 50.382812 61.925781 51.320312 61.925781 52.871094 C 61.925781 54.394531 62.652344 55.359375 63.84375 55.359375 C 65.03125 55.332031 65.757812 54.394531 65.757812 52.871094 Z M 65.757812 52.871094 " fill-opacity="1" fill-rule="nonzero"/><path fill="#969696" d="M 67.410156 54.335938 C 67.410156 53.136719 68.28125 52.460938 69.820312 52.375 L 71.707031 52.257812 L 71.707031 51.644531 C 71.707031 50.824219 71.210938 50.382812 70.226562 50.382812 C 69.441406 50.382812 68.921875 50.675781 68.746094 51.203125 L 68.746094 51.234375 L 67.671875 51.234375 L 67.671875 51.203125 C 67.847656 50.179688 68.832031 49.476562 70.253906 49.476562 C 71.851562 49.476562 72.75 50.296875 72.75 51.671875 L 72.75 56.207031 L 71.675781 56.207031 L 71.675781 55.242188 L 71.589844 55.242188 C 71.183594 55.945312 70.488281 56.324219 69.617188 56.324219 C 68.367188 56.296875 67.410156 55.535156 67.410156 54.335938 Z M 69.820312 55.359375 C 70.894531 55.359375 71.675781 54.65625 71.675781 53.691406 L 71.675781 53.078125 L 69.9375 53.195312 C 68.949219 53.253906 68.484375 53.605469 68.484375 54.277344 C 68.484375 54.980469 69.066406 55.359375 69.820312 55.359375 Z M 69.820312 55.359375 " fill-opacity="1" fill-rule="nonzero"/><path fill="#969696" d="M 73.679688 54.480469 L 74.753906 54.480469 C 74.925781 55.039062 75.449219 55.390625 76.289062 55.390625 C 77.160156 55.390625 77.800781 54.980469 77.800781 54.363281 C 77.800781 53.925781 77.449219 53.605469 76.667969 53.398438 L 75.652344 53.164062 C 74.433594 52.871094 73.851562 52.316406 73.851562 51.378906 C 73.851562 50.265625 74.898438 49.449219 76.289062 49.449219 C 77.652344 49.449219 78.613281 50.152344 78.757812 51.234375 L 77.710938 51.234375 C 77.566406 50.707031 77.074219 50.355469 76.261719 50.355469 C 75.476562 50.355469 74.898438 50.765625 74.898438 51.351562 C 74.898438 51.789062 75.214844 52.082031 76 52.257812 L 77.015625 52.492188 C 78.261719 52.785156 78.84375 53.339844 78.84375 54.277344 C 78.84375 55.449219 77.710938 56.265625 76.203125 56.265625 C 74.808594 56.296875 73.824219 55.566406 73.679688 54.480469 Z M 73.679688 54.480469 " fill-opacity="1" fill-rule="nonzero"/><path fill="#969696" d="M 79.570312 52.871094 C 79.570312 50.824219 80.730469 49.417969 82.5 49.417969 C 84.300781 49.417969 85.371094 50.765625 85.371094 52.726562 L 85.371094 53.136719 L 80.644531 53.136719 C 80.671875 54.511719 81.425781 55.300781 82.585938 55.300781 C 83.488281 55.300781 84.039062 54.890625 84.210938 54.480469 L 84.242188 54.421875 L 85.316406 54.421875 L 85.316406 54.480469 C 85.082031 55.390625 84.152344 56.265625 82.617188 56.265625 C 80.699219 56.296875 79.570312 54.949219 79.570312 52.871094 Z M 80.671875 52.316406 L 84.300781 52.316406 C 84.183594 51 83.457031 50.382812 82.5 50.382812 C 81.511719 50.382812 80.789062 51.058594 80.671875 52.316406 Z M 80.671875 52.316406 " fill-opacity="1" fill-rule="nonzero"/><path fill="#969696" d="M 86.011719 52.871094 C 86.011719 50.792969 87.085938 49.449219 88.769531 49.449219 C 89.667969 49.449219 90.449219 49.917969 90.828125 50.617188 L 90.914062 50.617188 L 90.914062 46.929688 L 91.988281 46.929688 L 91.988281 56.179688 L 90.914062 56.179688 L 90.914062 55.125 L 90.828125 55.125 C 90.421875 55.859375 89.695312 56.296875 88.769531 56.296875 C 87.113281 56.296875 86.011719 54.921875 86.011719 52.871094 Z M 90.945312 52.871094 C 90.945312 51.320312 90.21875 50.382812 89.027344 50.382812 C 87.839844 50.382812 87.113281 51.320312 87.113281 52.871094 C 87.113281 54.421875 87.839844 55.359375 89.027344 55.359375 C 90.191406 55.332031 90.945312 54.394531 90.945312 52.871094 Z M 90.945312 52.871094 " fill-opacity="1" fill-rule="nonzero"/><path fill="#969696" d="M 95.847656 52.871094 C 95.847656 50.792969 96.921875 49.449219 98.605469 49.449219 C 99.503906 49.449219 100.289062 49.917969 100.664062 50.617188 L 100.75 50.617188 L 100.75 46.929688 L 101.824219 46.929688 L 101.824219 56.179688 L 100.75 56.179688 L 100.75 55.125 L 100.664062 55.125 C 100.257812 55.859375 99.53125 56.296875 98.605469 56.296875 C 96.921875 56.296875 95.847656 54.921875 95.847656 52.871094 Z M 100.75 52.871094 C 100.75 51.320312 100.027344 50.382812 98.835938 50.382812 C 97.648438 50.382812 96.921875 51.320312 96.921875 52.871094 C 96.921875 54.421875 97.648438 55.359375 98.835938 55.359375 C 100.027344 55.332031 100.75 54.394531 100.75 52.871094 Z M 100.75 52.871094 " fill-opacity="1" fill-rule="nonzero"/><path fill="#969696" d="M 102.839844 52.871094 C 102.839844 50.824219 104 49.417969 105.773438 49.417969 C 107.570312 49.417969 108.644531 50.765625 108.644531 52.726562 L 108.644531 53.136719 L 103.914062 53.136719 C 103.945312 54.511719 104.699219 55.300781 105.859375 55.300781 C 106.757812 55.300781 107.308594 54.890625 107.484375 54.480469 L 107.511719 54.421875 L 108.585938 54.421875 L 108.585938 54.480469 C 108.355469 55.390625 107.425781 56.265625 105.886719 56.265625 C 103.972656 56.296875 102.839844 54.949219 102.839844 52.871094 Z M 103.945312 52.316406 L 107.570312 52.316406 C 107.453125 51 106.730469 50.382812 105.773438 50.382812 C 104.785156 50.382812 104.058594 51.058594 103.945312 52.316406 Z M 103.945312 52.316406 " fill-opacity="1" fill-rule="nonzero"/><path fill="#969696" d="M 109.28125 54.480469 L 110.355469 54.480469 C 110.53125 55.039062 111.050781 55.390625 111.894531 55.390625 C 112.765625 55.390625 113.402344 54.980469 113.402344 54.363281 C 113.402344 53.925781 113.054688 53.605469 112.269531 53.398438 L 111.253906 53.164062 C 110.035156 52.871094 109.457031 52.316406 109.457031 51.378906 C 109.457031 50.265625 110.5 49.449219 111.894531 49.449219 C 113.257812 49.449219 114.214844 50.152344 114.359375 51.234375 L 113.316406 51.234375 C 113.171875 50.707031 112.675781 50.355469 111.863281 50.355469 C 111.082031 50.355469 110.5 50.765625 110.5 51.351562 C 110.5 51.789062 110.820312 52.082031 111.605469 52.257812 L 112.621094 52.492188 C 113.867188 52.785156 114.449219 53.339844 114.449219 54.277344 C 114.449219 55.449219 113.316406 56.265625 111.808594 56.265625 C 110.414062 56.296875 109.398438 55.566406 109.28125 54.480469 Z M 109.28125 54.480469 " fill-opacity="1" fill-rule="nonzero"/><path fill="#969696" d="M 115.289062 47.546875 C 115.289062 47.136719 115.609375 46.8125 116.015625 46.8125 C 116.421875 46.8125 116.738281 47.136719 116.738281 47.546875 C 116.738281 47.957031 116.421875 48.277344 116.015625 48.277344 C 115.636719 48.277344 115.289062 47.925781 115.289062 47.546875 Z M 115.492188 49.535156 L 116.566406 49.535156 L 116.566406 56.148438 L 115.492188 56.148438 Z M 115.492188 49.535156 " fill-opacity="1" fill-rule="nonzero"/><path fill="#969696" d="M 117.8125 56.707031 L 118.917969 56.707031 C 119.03125 57.203125 119.613281 57.554688 120.570312 57.554688 C 121.761719 57.554688 122.457031 57 122.457031 56.03125 L 122.457031 54.6875 L 122.371094 54.6875 C 121.964844 55.417969 121.207031 55.828125 120.308594 55.828125 C 118.597656 55.828125 117.550781 54.511719 117.550781 52.636719 C 117.550781 50.792969 118.625 49.449219 120.339844 49.449219 C 121.265625 49.449219 121.992188 49.917969 122.398438 50.648438 L 122.484375 50.648438 L 122.484375 49.566406 L 123.558594 49.566406 L 123.558594 56.089844 C 123.558594 57.585938 122.425781 58.519531 120.628906 58.519531 C 119.003906 58.519531 117.988281 57.789062 117.8125 56.707031 Z M 122.484375 52.636719 C 122.484375 51.320312 121.761719 50.382812 120.542969 50.382812 C 119.324219 50.382812 118.625 51.320312 118.625 52.636719 C 118.625 53.957031 119.324219 54.863281 120.542969 54.863281 C 121.761719 54.863281 122.484375 53.957031 122.484375 52.636719 Z M 122.484375 52.636719 " fill-opacity="1" fill-rule="nonzero"/><path fill="#969696" d="M 124.804688 49.535156 L 125.878906 49.535156 L 125.878906 50.53125 L 125.96875 50.53125 C 126.285156 49.828125 126.925781 49.417969 127.882812 49.417969 C 129.363281 49.417969 130.175781 50.296875 130.175781 51.878906 L 130.175781 56.179688 L 129.101562 56.179688 L 129.101562 52.140625 C 129.101562 50.941406 128.609375 50.382812 127.5625 50.382812 C 126.519531 50.382812 125.851562 51.085938 125.851562 52.257812 L 125.851562 56.179688 L 124.777344 56.179688 Z M 124.804688 49.535156 " fill-opacity="1" fill-rule="nonzero"/></svg>