<svg xmlns="http://www.w3.org/2000/svg" xmlns:xlink="http://www.w3.org/1999/xlink" width="220" zoomAndPan="magnify" viewBox="0 0 165 82.499998" height="110" preserveAspectRatio="xMidYMid meet" version="1.0"><defs><clipPath id="1612da4920"><path d="M 0.496094 0 L 164.503906 0 L 164.503906 82.003906 L 0.496094 82.003906 Z M 0.496094 0 " clip-rule="nonzero"/></clipPath><clipPath id="6fb282f5f1"><path d="M 56.140625 35 L 70 35 L 70 57 L 56.140625 57 Z M 56.140625 35 " clip-rule="nonzero"/></clipPath><clipPath id="aa661b36d2"><path d="M 56.140625 5.644531 L 108 5.644531 L 108 57 L 56.140625 57 Z M 56.140625 5.644531 " clip-rule="nonzero"/></clipPath><clipPath id="f4b631cb60"><path d="M 56.140625 72 L 61 72 L 61 76.464844 L 56.140625 76.464844 Z M 56.140625 72 " clip-rule="nonzero"/></clipPath><clipPath id="617881c497"><path d="M 66 73 L 70 73 L 70 76.464844 L 66 76.464844 Z M 66 73 " clip-rule="nonzero"/></clipPath><clipPath id="c3f3f7c4a3"><path d="M 76 73 L 80 73 L 80 76.464844 L 76 76.464844 Z M 76 73 " clip-rule="nonzero"/></clipPath><clipPath id="b8d7d01d43"><path d="M 86 73 L 90 73 L 90 76.464844 L 86 76.464844 Z M 86 73 " clip-rule="nonzero"/></clipPath><clipPath id="7c37c436df"><path d="M 96 73 L 98 73 L 98 76.464844 L 96 76.464844 Z M 96 73 " clip-rule="nonzero"/></clipPath><clipPath id="b1587e93b1"><path d="M 103 72 L 108 72 L 108 76.464844 L 103 76.464844 Z M 103 72 " clip-rule="nonzero"/></clipPath><clipPath id="67a78a22be"><path d="M 56.140625 62 L 66 62 L 66 71 L 56.140625 71 Z M 56.140625 62 " clip-rule="nonzero"/></clipPath></defs><g clip-path="url(#1612da4920)"><path fill="#ffffff" d="M 0.496094 0 L 164.503906 0 L 164.503906 82.003906 L 0.496094 82.003906 Z M 0.496094 0 " fill-opacity="1" fill-rule="nonzero"/></g><g clip-path="url(#6fb282f5f1)"><path fill="#e50f71" d="M 60.871094 41.699219 C 60.082031 38.421875 56.640625 30.683594 56.640625 40.492188 C 56.640625 48.234375 57.304688 54.445312 58.03125 55.167969 C 58.640625 55.78125 63.132812 56.203125 69.152344 56.445312 C 69.554688 56.460938 69.703125 55.933594 69.378906 55.640625 C 65.324219 52.003906 62.316406 47.636719 60.871094 41.699219 Z M 60.871094 41.699219 " fill-opacity="1" fill-rule="nonzero"/></g><path fill="#e50f71" d="M 103.484375 41.699219 C 102.042969 47.636719 99.035156 52.003906 94.984375 55.640625 C 94.65625 55.933594 94.8125 56.460938 95.207031 56.445312 C 101.222656 56.203125 105.71875 55.78125 106.332031 55.167969 C 107.058594 54.445312 107.722656 48.234375 107.722656 40.492188 C 107.722656 30.683594 104.28125 38.421875 103.484375 41.699219 Z M 103.484375 41.699219 " fill-opacity="1" fill-rule="nonzero"/><g clip-path="url(#aa661b36d2)"><path fill="#e50f71" d="M 82.234375 51.15625 L 82.175781 51.15625 C 75.925781 51.058594 67.453125 47.199219 67.453125 40.609375 C 67.453125 37.054688 70.300781 42.335938 82.171875 42.4375 L 82.222656 42.4375 C 94.105469 42.335938 96.945312 37.054688 96.945312 40.609375 C 96.945312 47.199219 88.472656 51.058594 82.234375 51.15625 Z M 64.773438 27.257812 C 64.773438 23.050781 68.132812 29.296875 82.171875 29.40625 L 82.222656 29.40625 C 96.277344 29.296875 99.632812 23.050781 99.632812 27.257812 C 99.632812 35.023438 88.34375 37.3125 82.234375 37.398438 L 82.175781 37.398438 C 76.0625 37.3125 64.773438 35.023438 64.773438 27.257812 Z M 102.082031 40.773438 C 103.734375 32.421875 105.652344 34.339844 107.257812 26.585938 C 107.929688 23.355469 107.59375 17.925781 104.195312 13.523438 C 103.847656 13.078125 103.722656 12.890625 103.824219 12.789062 C 103.929688 12.679688 104.136719 12.773438 104.640625 13.199219 C 105.402344 13.835938 106.195312 14.699219 106.945312 15.761719 C 107.15625 16.074219 107.550781 15.945312 107.523438 15.558594 C 107.28125 10.878906 106.890625 7.554688 106.375 7.039062 C 105.671875 6.335938 99.765625 5.886719 92.308594 5.679688 C 91.65625 5.660156 91.625 6.109375 92.257812 6.382812 C 99.113281 9.417969 103.800781 15.589844 103.800781 23.265625 C 103.800781 24.15625 103.386719 24.117188 103.109375 23.351562 C 102.582031 21.855469 101.890625 20.589844 101.046875 19.65625 C 97.773438 16.042969 95.828125 23.253906 82.234375 23.355469 L 82.175781 23.355469 C 68.574219 23.253906 66.636719 16.042969 63.359375 19.65625 C 62.515625 20.589844 61.828125 21.855469 61.300781 23.351562 C 61.019531 24.117188 60.609375 24.15625 60.609375 23.265625 C 60.609375 15.589844 65.292969 9.417969 72.152344 6.382812 C 72.78125 6.109375 72.75 5.660156 72.097656 5.679688 C 64.636719 5.886719 58.734375 6.335938 58.03125 7.039062 C 57.515625 7.554688 57.125 10.878906 56.875 15.558594 C 56.855469 15.945312 57.242188 16.074219 57.460938 15.761719 C 58.210938 14.699219 58.996094 13.835938 59.761719 13.199219 C 60.261719 12.773438 60.472656 12.679688 60.582031 12.789062 C 60.683594 12.890625 60.554688 13.078125 60.210938 13.523438 C 56.8125 17.925781 56.476562 23.355469 57.144531 26.585938 C 58.753906 34.339844 60.664062 32.421875 62.316406 40.773438 C 63.226562 45.351562 68.429688 56.128906 82.171875 56.445312 C 82.171875 56.445312 82.1875 56.441406 82.199219 56.441406 C 82.214844 56.441406 82.222656 56.445312 82.222656 56.445312 C 95.972656 56.128906 101.175781 45.351562 102.082031 40.773438 Z M 102.082031 40.773438 " fill-opacity="1" fill-rule="nonzero"/></g><g clip-path="url(#f4b631cb60)"><path fill="#231f20" d="M 59.597656 73.601562 C 59.386719 73.492188 59.171875 73.414062 58.953125 73.363281 C 58.734375 73.316406 58.5 73.292969 58.246094 73.292969 C 57.863281 73.292969 57.574219 73.339844 57.382812 73.429688 C 57.191406 73.523438 57.09375 73.660156 57.09375 73.835938 C 57.09375 73.9375 57.121094 74.019531 57.167969 74.085938 C 57.222656 74.152344 57.300781 74.203125 57.40625 74.242188 C 57.507812 74.28125 57.640625 74.308594 57.800781 74.332031 C 57.960938 74.347656 58.148438 74.359375 58.367188 74.367188 C 58.644531 74.378906 58.890625 74.398438 59.105469 74.425781 C 59.3125 74.457031 59.488281 74.507812 59.625 74.570312 C 59.761719 74.636719 59.863281 74.71875 59.933594 74.828125 C 60 74.9375 60.035156 75.078125 60.035156 75.25 C 60.035156 75.570312 59.898438 75.816406 59.617188 75.996094 C 59.339844 76.171875 58.933594 76.261719 58.394531 76.261719 C 57.667969 76.261719 57.082031 76.097656 56.632812 75.777344 L 56.816406 75.507812 C 57.0625 75.660156 57.3125 75.773438 57.566406 75.839844 C 57.824219 75.910156 58.097656 75.945312 58.398438 75.945312 C 58.804688 75.945312 59.113281 75.886719 59.328125 75.761719 C 59.542969 75.640625 59.652344 75.480469 59.652344 75.277344 C 59.652344 75.160156 59.628906 75.066406 59.574219 74.996094 C 59.515625 74.921875 59.441406 74.863281 59.335938 74.820312 C 59.230469 74.773438 59.101562 74.746094 58.945312 74.722656 C 58.785156 74.703125 58.601562 74.6875 58.382812 74.675781 C 58.101562 74.667969 57.855469 74.648438 57.648438 74.628906 C 57.4375 74.601562 57.265625 74.5625 57.128906 74.507812 C 56.988281 74.453125 56.882812 74.375 56.8125 74.273438 C 56.746094 74.179688 56.710938 74.046875 56.710938 73.890625 C 56.710938 73.601562 56.84375 73.378906 57.105469 73.214844 C 57.371094 73.058594 57.753906 72.976562 58.25 72.976562 C 58.871094 72.976562 59.386719 73.101562 59.792969 73.351562 Z M 59.597656 73.601562 " fill-opacity="1" fill-rule="nonzero"/></g><g clip-path="url(#617881c497)"><path fill="#231f20" d="M 68.097656 73.378906 L 68.097656 76.191406 L 67.765625 76.191406 L 67.765625 73.378906 L 66.265625 73.378906 L 66.265625 73.0625 L 69.597656 73.0625 L 69.597656 73.378906 Z M 68.097656 73.378906 " fill-opacity="1" fill-rule="nonzero"/></g><g clip-path="url(#c3f3f7c4a3)"><path fill="#231f20" d="M 79.378906 75.167969 C 79.378906 75.324219 79.34375 75.464844 79.269531 75.601562 C 79.191406 75.730469 79.082031 75.84375 78.933594 75.941406 C 78.789062 76.035156 78.617188 76.109375 78.40625 76.160156 C 78.199219 76.214844 77.96875 76.242188 77.710938 76.242188 C 77.445312 76.242188 77.210938 76.214844 77.003906 76.160156 C 76.796875 76.105469 76.621094 76.027344 76.476562 75.9375 C 76.328125 75.839844 76.214844 75.730469 76.140625 75.597656 C 76.058594 75.464844 76.023438 75.324219 76.023438 75.167969 L 76.023438 73.0625 L 76.351562 73.0625 L 76.351562 75.058594 C 76.351562 75.636719 76.804688 75.925781 77.710938 75.925781 C 78.601562 75.925781 79.050781 75.636719 79.050781 75.058594 L 79.050781 73.0625 L 79.378906 73.0625 Z M 79.378906 75.167969 " fill-opacity="1" fill-rule="nonzero"/></g><g clip-path="url(#b8d7d01d43)"><path fill="#231f20" d="M 88.371094 75.875 C 88.574219 75.875 88.765625 75.828125 88.941406 75.730469 C 89.121094 75.636719 89.257812 75.507812 89.355469 75.347656 C 89.421875 75.242188 89.472656 75.128906 89.507812 75.011719 C 89.535156 74.890625 89.554688 74.769531 89.554688 74.644531 C 89.554688 74.453125 89.527344 74.28125 89.464844 74.125 C 89.398438 73.96875 89.316406 73.835938 89.207031 73.726562 C 89.09375 73.617188 88.960938 73.53125 88.808594 73.46875 C 88.652344 73.410156 88.480469 73.378906 88.289062 73.378906 L 86.683594 73.378906 L 86.683594 75.875 Z M 88.246094 73.0625 C 88.507812 73.0625 88.742188 73.101562 88.953125 73.175781 C 89.160156 73.25 89.335938 73.355469 89.480469 73.492188 C 89.621094 73.632812 89.734375 73.796875 89.816406 74 C 89.894531 74.191406 89.933594 74.414062 89.933594 74.660156 C 89.933594 74.871094 89.894531 75.074219 89.816406 75.257812 C 89.742188 75.449219 89.628906 75.613281 89.476562 75.757812 C 89.332031 75.898438 89.164062 76.007812 88.972656 76.078125 C 88.785156 76.152344 88.574219 76.191406 88.347656 76.191406 L 86.351562 76.191406 L 86.351562 73.0625 Z M 88.246094 73.0625 " fill-opacity="1" fill-rule="nonzero"/></g><g clip-path="url(#7c37c436df)"><path fill="#231f20" d="M 96.746094 73.0625 L 97.082031 73.0625 L 97.082031 76.191406 L 96.746094 76.191406 Z M 96.746094 73.0625 " fill-opacity="1" fill-rule="nonzero"/></g><g clip-path="url(#b1587e93b1)"><path fill="#231f20" d="M 107.359375 74.652344 C 107.359375 74.453125 107.320312 74.269531 107.246094 74.101562 C 107.167969 73.929688 107.058594 73.785156 106.921875 73.664062 C 106.785156 73.539062 106.621094 73.445312 106.429688 73.378906 C 106.238281 73.304688 106.023438 73.269531 105.792969 73.269531 C 105.5625 73.269531 105.351562 73.304688 105.160156 73.378906 C 104.96875 73.445312 104.804688 73.542969 104.664062 73.664062 C 104.527344 73.789062 104.421875 73.9375 104.347656 74.105469 C 104.273438 74.277344 104.234375 74.460938 104.234375 74.664062 C 104.234375 74.847656 104.273438 75.019531 104.347656 75.179688 C 104.421875 75.339844 104.527344 75.480469 104.664062 75.59375 C 104.800781 75.707031 104.960938 75.800781 105.15625 75.867188 C 105.34375 75.933594 105.5625 75.964844 105.792969 75.964844 C 106.027344 75.964844 106.246094 75.933594 106.4375 75.867188 C 106.632812 75.800781 106.796875 75.707031 106.933594 75.59375 C 107.066406 75.472656 107.171875 75.335938 107.246094 75.175781 C 107.320312 75.015625 107.359375 74.84375 107.359375 74.652344 Z M 107.714844 74.617188 C 107.714844 75.125 107.523438 75.535156 107.132812 75.855469 C 106.957031 75.988281 106.761719 76.097656 106.53125 76.167969 C 106.308594 76.242188 106.058594 76.28125 105.792969 76.28125 C 105.527344 76.28125 105.285156 76.242188 105.054688 76.164062 C 104.832031 76.09375 104.632812 75.984375 104.464844 75.847656 C 104.074219 75.53125 103.878906 75.121094 103.878906 74.617188 C 103.878906 74.117188 104.074219 73.707031 104.46875 73.394531 C 104.636719 73.253906 104.835938 73.148438 105.066406 73.070312 C 105.296875 72.992188 105.535156 72.957031 105.792969 72.957031 C 106.050781 72.957031 106.292969 72.992188 106.523438 73.070312 C 106.753906 73.148438 106.949219 73.253906 107.121094 73.394531 C 107.515625 73.710938 107.714844 74.117188 107.714844 74.617188 Z M 107.714844 74.617188 " fill-opacity="1" fill-rule="nonzero"/></g><g clip-path="url(#67a78a22be)"><path fill="#231f20" d="M 64.242188 65.589844 C 63.828125 65.183594 63.351562 64.859375 62.816406 64.617188 C 62.285156 64.378906 61.679688 64.253906 61.015625 64.253906 C 60.550781 64.253906 60.136719 64.320312 59.753906 64.4375 C 59.378906 64.5625 59.058594 64.730469 58.785156 64.953125 C 58.519531 65.175781 58.304688 65.4375 58.15625 65.738281 C 58.007812 66.039062 57.933594 66.367188 57.933594 66.71875 C 57.933594 67.085938 58.007812 67.417969 58.164062 67.726562 C 58.316406 68.023438 58.53125 68.285156 58.808594 68.507812 C 59.089844 68.726562 59.433594 68.898438 59.824219 69.019531 C 60.222656 69.140625 60.664062 69.203125 61.160156 69.203125 C 61.78125 69.203125 62.347656 69.09375 62.851562 68.871094 C 63.359375 68.644531 63.828125 68.300781 64.261719 67.832031 L 65.789062 68.644531 C 65.476562 68.992188 65.160156 69.289062 64.828125 69.539062 C 64.5 69.796875 64.152344 70 63.773438 70.160156 C 63.40625 70.324219 63.011719 70.441406 62.59375 70.519531 C 62.175781 70.59375 61.726562 70.632812 61.242188 70.632812 C 60.582031 70.632812 59.96875 70.550781 59.40625 70.398438 C 58.847656 70.25 58.304688 70.007812 57.765625 69.683594 C 57.269531 69.382812 56.875 68.964844 56.574219 68.441406 C 56.285156 67.917969 56.140625 67.34375 56.140625 66.71875 C 56.140625 66.191406 56.246094 65.699219 56.457031 65.246094 C 56.671875 64.789062 56.996094 64.386719 57.425781 64.042969 C 57.894531 63.65625 58.445312 63.355469 59.089844 63.144531 C 59.726562 62.941406 60.417969 62.828125 61.160156 62.828125 C 62.160156 62.828125 63.042969 63.011719 63.820312 63.367188 C 64.589844 63.722656 65.277344 64.269531 65.875 65.011719 Z M 64.242188 65.589844 " fill-opacity="1" fill-rule="nonzero"/></g><path fill="#231f20" d="M 78.449219 70.425781 L 78.449219 63.054688 L 86.464844 63.054688 L 86.464844 64.457031 L 80.25 64.457031 L 80.25 65.988281 L 86.464844 65.988281 L 86.464844 67.394531 L 80.25 67.394531 L 80.25 69.019531 L 86.464844 69.019531 L 86.464844 70.425781 Z M 78.449219 70.425781 " fill-opacity="1" fill-rule="nonzero"/><path fill="#231f20" d="M 106.375 66.730469 C 106.375 66.363281 106.300781 66.03125 106.152344 65.726562 C 106.003906 65.425781 105.792969 65.167969 105.515625 64.949219 C 105.242188 64.730469 104.90625 64.5625 104.511719 64.4375 C 104.125 64.320312 103.683594 64.253906 103.199219 64.253906 C 102.71875 64.253906 102.28125 64.320312 101.890625 64.4375 C 101.5 64.5625 101.167969 64.730469 100.890625 64.949219 C 100.613281 65.167969 100.402344 65.425781 100.25 65.726562 C 100.097656 66.03125 100.023438 66.363281 100.023438 66.730469 C 100.023438 67.105469 100.097656 67.445312 100.246094 67.75 C 100.394531 68.054688 100.601562 68.316406 100.875 68.535156 C 101.152344 68.753906 101.488281 68.917969 101.875 69.039062 C 102.261719 69.15625 102.703125 69.214844 103.191406 69.214844 C 103.683594 69.214844 104.125 69.15625 104.511719 69.039062 C 104.90625 68.917969 105.242188 68.753906 105.515625 68.535156 C 105.792969 68.316406 106.003906 68.054688 106.152344 67.75 C 106.300781 67.445312 106.375 67.105469 106.375 66.730469 Z M 108.222656 66.730469 C 108.222656 67.824219 107.800781 68.722656 106.945312 69.429688 C 106.476562 69.816406 105.921875 70.113281 105.285156 70.324219 C 104.652344 70.535156 103.953125 70.640625 103.191406 70.640625 C 102.433594 70.640625 101.738281 70.535156 101.101562 70.324219 C 100.457031 70.113281 99.90625 69.816406 99.4375 69.429688 C 99.023438 69.082031 98.703125 68.683594 98.496094 68.226562 C 98.28125 67.769531 98.179688 67.273438 98.179688 66.730469 C 98.179688 66.195312 98.285156 65.703125 98.5 65.25 C 98.714844 64.796875 99.03125 64.398438 99.449219 64.054688 C 99.921875 63.667969 100.480469 63.367188 101.121094 63.148438 C 101.761719 62.941406 102.460938 62.828125 103.199219 62.828125 C 103.941406 62.828125 104.636719 62.941406 105.277344 63.148438 C 105.921875 63.367188 106.476562 63.667969 106.945312 64.054688 C 107.800781 64.757812 108.222656 65.652344 108.222656 66.730469 Z M 108.222656 66.730469 " fill-opacity="1" fill-rule="nonzero"/><path fill="#231f20" d="M 88.5 70.425781 L 88.5 63.054688 L 96.511719 63.054688 L 96.511719 64.457031 L 90.292969 64.457031 L 90.292969 65.988281 L 96.511719 65.988281 L 96.511719 67.394531 L 90.292969 67.394531 L 90.292969 69.019531 L 96.511719 69.019531 L 96.511719 70.425781 Z M 88.5 70.425781 " fill-opacity="1" fill-rule="nonzero"/><path fill="#231f20" d="M 74.863281 67.6875 C 75.984375 67.386719 76.542969 66.640625 76.542969 65.46875 C 76.542969 65.109375 76.480469 64.78125 76.347656 64.488281 C 76.210938 64.191406 76.027344 63.9375 75.785156 63.722656 C 75.542969 63.507812 75.25 63.347656 74.902344 63.230469 C 74.5625 63.113281 74.183594 63.054688 73.757812 63.054688 L 67.703125 63.054688 L 67.703125 70.425781 L 69.5 70.425781 L 69.5 64.457031 L 73.550781 64.457031 C 73.941406 64.457031 74.242188 64.550781 74.453125 64.722656 C 74.660156 64.898438 74.765625 65.132812 74.765625 65.417969 C 74.765625 65.726562 74.664062 65.96875 74.457031 66.148438 C 74.253906 66.324219 73.953125 66.417969 73.5625 66.417969 L 71.90625 66.417969 L 74.714844 70.425781 L 76.734375 70.425781 Z M 74.863281 67.6875 " fill-opacity="1" fill-rule="nonzero"/></svg>