<svg xmlns="http://www.w3.org/2000/svg" xmlns:xlink="http://www.w3.org/1999/xlink" width="220" zoomAndPan="magnify" viewBox="0 0 165 82.499998" height="110" preserveAspectRatio="xMidYMid meet" version="1.0"><defs><clipPath id="329f1cef12"><path d="M 0.496094 0 L 164.503906 0 L 164.503906 82.003906 L 0.496094 82.003906 Z M 0.496094 0 " clip-rule="nonzero"/></clipPath><clipPath id="2acc37cde8"><path d="M 149 44 L 155.128906 44 L 155.128906 50.695312 L 149 50.695312 Z M 149 44 " clip-rule="nonzero"/></clipPath><clipPath id="cd9cea6b75"><path d="M 53 30.804688 L 148 30.804688 L 148 50.695312 L 53 50.695312 Z M 53 30.804688 " clip-rule="nonzero"/></clipPath><clipPath id="c0724acaeb"><path d="M 9.632812 31 L 29 31 L 29 50.695312 L 9.632812 50.695312 Z M 9.632812 31 " clip-rule="nonzero"/></clipPath><clipPath id="5f100f0096"><path d="M 28 30.804688 L 49 30.804688 L 49 50.695312 L 28 50.695312 Z M 28 30.804688 " clip-rule="nonzero"/></clipPath></defs><g clip-path="url(#329f1cef12)"><path fill="#ffffff" d="M 0.496094 0 L 164.503906 0 L 164.503906 82.003906 L 0.496094 82.003906 Z M 0.496094 0 " fill-opacity="1" fill-rule="nonzero"/></g><g clip-path="url(#2acc37cde8)"><path fill="#171717" d="M 149.535156 44.695312 L 155.128906 44.695312 L 155.128906 50.21875 L 149.535156 50.21875 Z M 149.535156 44.695312 " fill-opacity="1" fill-rule="evenodd"/></g><g clip-path="url(#cd9cea6b75)"><path fill="#171717" d="M 53.417969 31.316406 L 58.363281 31.316406 L 58.363281 33.875 L 58.4375 33.875 C 59.125 32.898438 59.957031 32.144531 60.929688 31.605469 C 61.902344 31.070312 63.015625 30.800781 64.273438 30.800781 C 65.527344 30.800781 66.578125 31.035156 67.578125 31.496094 C 68.574219 31.960938 69.328125 32.777344 69.847656 33.945312 C 70.414062 33.117188 71.183594 32.386719 72.15625 31.75 C 73.128906 31.117188 74.277344 30.800781 75.609375 30.800781 C 76.617188 30.800781 77.550781 30.921875 78.414062 31.164062 C 79.277344 31.410156 80.015625 31.796875 80.628906 32.335938 C 81.246094 32.871094 81.726562 33.574219 82.070312 34.4375 C 82.417969 35.304688 82.585938 36.34375 82.585938 37.5625 L 82.585938 50.21875 L 77.34375 50.21875 L 77.34375 39.503906 C 77.34375 38.871094 77.320312 38.273438 77.269531 37.714844 C 77.21875 37.152344 77.085938 36.664062 76.863281 36.25 C 76.640625 35.835938 76.316406 35.507812 75.882812 35.265625 C 75.453125 35.019531 74.871094 34.898438 74.132812 34.898438 C 73.390625 34.898438 72.796875 35.039062 72.339844 35.320312 C 71.882812 35.601562 71.527344 35.964844 71.269531 36.417969 C 71.011719 36.867188 70.839844 37.378906 70.753906 37.953125 C 70.667969 38.523438 70.621094 39.105469 70.621094 39.6875 L 70.621094 50.21875 L 65.378906 50.21875 L 65.378906 39.617188 C 65.378906 39.054688 65.367188 38.5 65.34375 37.953125 C 65.316406 37.402344 65.210938 36.898438 65.027344 36.433594 C 64.84375 35.972656 64.535156 35.601562 64.105469 35.320312 C 63.675781 35.039062 63.042969 34.898438 62.203125 34.898438 C 61.957031 34.898438 61.632812 34.953125 61.226562 35.0625 C 60.820312 35.171875 60.425781 35.378906 60.042969 35.683594 C 59.664062 35.988281 59.335938 36.429688 59.066406 37 C 58.792969 37.574219 58.660156 38.324219 58.660156 39.25 L 58.660156 50.21875 L 53.417969 50.21875 Z M 90.269531 40.785156 C 90.269531 41.539062 90.34375 42.277344 90.492188 42.996094 C 90.640625 43.714844 90.890625 44.363281 91.25 44.933594 C 91.605469 45.507812 92.078125 45.964844 92.671875 46.308594 C 93.261719 46.648438 94 46.816406 94.886719 46.816406 C 95.773438 46.816406 96.515625 46.648438 97.121094 46.308594 C 97.722656 45.964844 98.203125 45.507812 98.558594 44.933594 C 98.917969 44.363281 99.167969 43.714844 99.316406 42.996094 C 99.464844 42.277344 99.539062 41.539062 99.539062 40.785156 C 99.539062 40.027344 99.464844 39.285156 99.316406 38.554688 C 99.167969 37.820312 98.917969 37.175781 98.558594 36.617188 C 98.203125 36.054688 97.722656 35.597656 97.121094 35.246094 C 96.515625 34.890625 95.773438 34.714844 94.886719 34.714844 C 94 34.714844 93.261719 34.890625 92.671875 35.246094 C 92.078125 35.597656 91.605469 36.054688 91.25 36.617188 C 90.890625 37.175781 90.640625 37.820312 90.492188 38.554688 C 90.34375 39.285156 90.269531 40.03125 90.269531 40.785156 Z M 85.027344 40.785156 C 85.027344 39.273438 85.261719 37.902344 85.730469 36.671875 C 86.195312 35.441406 86.859375 34.390625 87.722656 33.527344 C 88.585938 32.660156 89.617188 31.992188 90.824219 31.515625 C 92.03125 31.039062 93.386719 30.804688 94.886719 30.804688 C 96.390625 30.804688 97.75 31.039062 98.96875 31.515625 C 100.1875 31.992188 101.226562 32.660156 102.089844 33.527344 C 102.949219 34.390625 103.613281 35.441406 104.082031 36.671875 C 104.550781 37.902344 104.785156 39.273438 104.785156 40.785156 C 104.785156 42.296875 104.550781 43.660156 104.082031 44.878906 C 103.613281 46.097656 102.949219 47.140625 102.089844 48.007812 C 101.226562 48.871094 100.1875 49.535156 98.96875 50 C 97.75 50.460938 96.390625 50.695312 94.886719 50.695312 C 93.386719 50.695312 92.03125 50.460938 90.824219 50 C 89.617188 49.535156 88.585938 48.871094 87.722656 48.007812 C 86.859375 47.140625 86.195312 46.097656 85.730469 44.878906 C 85.261719 43.660156 85.027344 42.296875 85.027344 40.785156 Z M 106.851562 31.316406 L 111.835938 31.316406 L 111.835938 33.949219 L 111.945312 33.949219 C 112.609375 32.851562 113.472656 32.050781 114.53125 31.554688 C 115.589844 31.054688 116.671875 30.804688 117.78125 30.804688 C 119.183594 30.804688 120.335938 30.992188 121.234375 31.371094 C 122.128906 31.746094 122.839844 32.273438 123.355469 32.941406 C 123.871094 33.613281 124.234375 34.429688 124.445312 35.390625 C 124.652344 36.355469 124.757812 37.421875 124.757812 38.589844 L 124.757812 50.21875 L 119.515625 50.21875 L 119.515625 39.542969 C 119.515625 37.984375 119.269531 36.820312 118.777344 36.050781 C 118.285156 35.285156 117.410156 34.898438 116.15625 34.898438 C 114.726562 34.898438 113.691406 35.320312 113.054688 36.160156 C 112.414062 37 112.09375 38.382812 112.09375 40.3125 L 112.09375 50.21875 L 106.847656 50.21875 L 106.847656 31.316406 Z M 132.515625 40.785156 C 132.515625 41.539062 132.589844 42.277344 132.738281 42.996094 C 132.882812 43.714844 133.136719 44.363281 133.492188 44.933594 C 133.851562 45.507812 134.324219 45.964844 134.914062 46.308594 C 135.507812 46.648438 136.246094 46.816406 137.132812 46.816406 C 138.019531 46.816406 138.761719 46.648438 139.367188 46.308594 C 139.96875 45.964844 140.449219 45.507812 140.804688 44.933594 C 141.164062 44.363281 141.414062 43.714844 141.5625 42.996094 C 141.710938 42.277344 141.785156 41.539062 141.785156 40.785156 C 141.785156 40.027344 141.710938 39.285156 141.5625 38.554688 C 141.414062 37.820312 141.164062 37.175781 140.804688 36.617188 C 140.449219 36.054688 139.96875 35.597656 139.367188 35.246094 C 138.761719 34.890625 138.019531 34.714844 137.132812 34.714844 C 136.242188 34.714844 135.507812 34.890625 134.914062 35.246094 C 134.324219 35.597656 133.851562 36.054688 133.492188 36.617188 C 133.136719 37.175781 132.882812 37.820312 132.738281 38.554688 C 132.589844 39.285156 132.515625 40.03125 132.515625 40.785156 Z M 127.269531 40.785156 C 127.269531 39.273438 127.503906 37.902344 127.972656 36.671875 C 128.441406 35.441406 129.105469 34.390625 129.964844 33.527344 C 130.828125 32.660156 131.863281 31.992188 133.070312 31.515625 C 134.273438 31.039062 135.628906 30.804688 137.132812 30.804688 C 138.636719 30.804688 139.992188 31.039062 141.210938 31.515625 C 142.429688 31.992188 143.46875 32.660156 144.332031 33.527344 C 145.191406 34.390625 145.855469 35.441406 146.324219 36.671875 C 146.792969 37.902344 147.027344 39.273438 147.027344 40.785156 C 147.027344 42.296875 146.792969 43.660156 146.324219 44.878906 C 145.855469 46.097656 145.191406 47.140625 144.332031 48.007812 C 143.46875 48.871094 142.429688 49.535156 141.210938 50 C 139.992188 50.460938 138.632812 50.695312 137.132812 50.695312 C 135.632812 50.695312 134.277344 50.460938 133.070312 50 C 131.863281 49.535156 130.828125 48.871094 129.964844 48.007812 C 129.105469 47.140625 128.441406 46.097656 127.972656 44.878906 C 127.507812 43.660156 127.269531 42.296875 127.269531 40.785156 Z M 127.269531 40.785156 " fill-opacity="1" fill-rule="evenodd"/></g><g clip-path="url(#c0724acaeb)"><path fill="#171717" d="M 28.773438 31.328125 L 9.632812 31.328125 L 9.632812 50.214844 L 28.773438 50.214844 Z M 28.773438 31.328125 " fill-opacity="1" fill-rule="nonzero"/></g><g clip-path="url(#5f100f0096)"><path fill="#171717" d="M 38.316406 50.695312 C 43.882812 50.695312 48.394531 46.242188 48.394531 40.75 C 48.394531 35.257812 43.882812 30.804688 38.316406 30.804688 C 32.75 30.804688 28.238281 35.257812 28.238281 40.75 C 28.238281 46.242188 32.75 50.695312 38.316406 50.695312 Z M 38.316406 50.695312 " fill-opacity="1" fill-rule="nonzero"/></g></svg>