<svg xmlns="http://www.w3.org/2000/svg" xmlns:xlink="http://www.w3.org/1999/xlink" width="220" zoomAndPan="magnify" viewBox="0 0 165 82.499998" height="110" preserveAspectRatio="xMidYMid meet" version="1.0"><defs><clipPath id="7bf2494d0b"><path d="M 0.496094 0 L 164.503906 0 L 164.503906 82.003906 L 0.496094 82.003906 Z M 0.496094 0 " clip-rule="nonzero"/></clipPath></defs><g clip-path="url(#7bf2494d0b)"><path fill="#ffffff" d="M 0.496094 0 L 164.503906 0 L 164.503906 82.003906 L 0.496094 82.003906 Z M 0.496094 0 " fill-opacity="1" fill-rule="nonzero"/></g><path fill="#ff6600" d="M 80.789062 42.058594 C 80.789062 37.253906 76.890625 36.347656 72.855469 36.347656 C 70.929688 36.347656 68.957031 36.664062 67.4375 37.527344 C 66.714844 37.957031 66.101562 38.5 65.625 39.226562 L 65.625 36.84375 L 62.292969 36.84375 L 62.292969 36.097656 C 62.292969 34.554688 63.085938 34.398438 64.355469 34.398438 C 64.855469 34.398438 65.332031 34.417969 65.851562 34.488281 L 65.851562 30.566406 C 64.96875 30.542969 64.039062 30.472656 63.15625 30.472656 C 58.394531 30.472656 56.695312 31.972656 56.695312 36.867188 L 53.996094 36.867188 L 53.996094 40.472656 L 56.695312 40.472656 L 56.695312 53.871094 L 62.269531 53.871094 L 62.269531 40.472656 L 65.082031 40.472656 C 64.921875 40.972656 64.832031 41.515625 64.808594 42.105469 L 70.023438 42.105469 C 70.296875 40.65625 71.269531 39.972656 72.8125 39.972656 C 73.96875 39.972656 75.507812 40.472656 75.507812 41.742188 C 75.507812 42.785156 74.988281 43.125 74.035156 43.308594 C 70.160156 44.101562 64.128906 43.671875 64.128906 49.203125 C 64.128906 52.714844 66.691406 54.347656 69.933594 54.347656 C 71.972656 54.347656 74.105469 53.757812 75.53125 52.261719 C 75.601562 52.828125 75.667969 53.351562 75.847656 53.871094 L 81.449219 53.871094 C 80.789062 52.535156 80.789062 50.949219 80.789062 49.519531 Z M 71.996094 50.902344 C 70.75 50.902344 69.660156 50.335938 69.660156 48.976562 C 69.660156 47.636719 70.703125 47.117188 71.949219 46.820312 C 73.152344 46.503906 74.601562 46.390625 75.394531 45.914062 C 75.554688 49.40625 74.671875 50.902344 71.996094 50.902344 Z M 71.996094 50.902344 " fill-opacity="1" fill-rule="nonzero"/><path fill="#ff6600" d="M 89.902344 50.085938 C 87.546875 50.085938 86.59375 47.820312 86.59375 45.621094 C 86.59375 43.261719 87.09375 40.609375 90.199219 40.609375 C 91.605469 40.609375 92.894531 41.628906 92.917969 43.058594 L 98.335938 43.058594 C 97.949219 38.570312 94.164062 36.347656 89.949219 36.347656 C 84.484375 36.347656 81.039062 40.222656 81.039062 45.621094 C 81.039062 50.835938 84.847656 54.328125 89.949219 54.328125 C 94.460938 54.328125 98.019531 51.695312 98.496094 47.140625 L 93.078125 47.140625 C 92.804688 48.976562 91.832031 50.085938 89.902344 50.085938 Z M 89.902344 50.085938 " fill-opacity="1" fill-rule="nonzero"/><path fill="#ff6600" d="M 98.835938 30.453125 L 104.410156 30.453125 L 104.410156 34.714844 L 98.835938 34.714844 Z M 98.835938 30.453125 " fill-opacity="1" fill-rule="nonzero"/><path fill="#ff6600" d="M 98.835938 36.84375 L 104.410156 36.84375 L 104.410156 53.851562 L 98.835938 53.851562 Z M 98.835938 36.84375 " fill-opacity="1" fill-rule="nonzero"/><path fill="#ff6600" d="M 105.929688 30.453125 L 111.507812 30.453125 L 111.507812 53.851562 L 105.929688 53.851562 Z M 105.929688 30.453125 " fill-opacity="1" fill-rule="nonzero"/><path fill="#ff6600" d="M 121.164062 36.371094 C 116.152344 36.371094 111.980469 40.109375 111.980469 45.324219 C 111.980469 51.039062 115.746094 54.371094 121.300781 54.371094 C 125.105469 54.371094 128.734375 52.671875 129.753906 48.726562 L 124.539062 48.726562 C 124.019531 49.972656 122.703125 50.585938 121.367188 50.585938 C 119.007812 50.585938 117.671875 49.042969 117.558594 46.707031 L 130.046875 46.707031 C 130.296875 40.949219 127.261719 36.371094 121.164062 36.371094 Z M 117.558594 43.601562 C 117.875 41.539062 119.191406 40.132812 121.164062 40.132812 C 123.023438 40.132812 124.382812 41.699219 124.472656 43.601562 Z M 117.558594 43.601562 " fill-opacity="1" fill-rule="nonzero"/><path fill="#ff6600" d="M 130.457031 47.773438 L 136.554688 47.773438 L 136.554688 53.871094 L 130.457031 53.871094 Z M 130.457031 47.773438 " fill-opacity="1" fill-rule="nonzero"/><path fill="#ff6600" d="M 138.140625 30.453125 L 143.71875 30.453125 L 143.71875 34.714844 L 138.140625 34.714844 Z M 138.140625 30.453125 " fill-opacity="1" fill-rule="nonzero"/><path fill="#ff6600" d="M 155.277344 40.449219 L 155.277344 36.84375 L 151.832031 36.84375 L 151.832031 31.699219 L 146.257812 31.699219 L 146.257812 36.84375 L 138.117188 36.84375 L 138.117188 53.851562 L 143.695312 53.851562 L 143.695312 40.449219 L 146.257812 40.449219 L 146.257812 48.023438 C 146.257812 52.648438 147.457031 54.03125 152.21875 54.03125 C 153.238281 54.03125 154.257812 53.894531 155.253906 53.871094 L 155.253906 49.769531 C 154.757812 49.769531 154.28125 49.835938 153.804688 49.835938 C 152.605469 49.835938 151.808594 49.542969 151.808594 48.203125 L 151.808594 40.472656 L 155.277344 40.472656 Z M 155.277344 40.449219 " fill-opacity="1" fill-rule="nonzero"/><path fill="#ff6600" d="M 49.304688 44.53125 C 49.304688 43.261719 49.304688 36.4375 49.304688 36.4375 C 49.304688 28.027344 42.480469 21.203125 34.070312 21.203125 L 25.027344 21.203125 C 16.617188 21.203125 9.816406 28.027344 9.816406 36.414062 L 9.816406 45.460938 C 9.816406 53.871094 16.617188 60.699219 25.027344 60.699219 L 54.675781 60.699219 C 54.699219 60.71875 49.304688 59.132812 49.304688 44.53125 Z M 23.917969 53.941406 C 21.398438 53.941406 19.246094 52.714844 17.863281 50.765625 C 17.023438 49.566406 16.550781 48.183594 16.550781 46.574219 L 16.550781 35.371094 C 16.550781 32.832031 17.796875 30.679688 19.722656 29.316406 C 20.945312 28.480469 22.308594 28.027344 23.894531 28.027344 L 35.113281 28.027344 C 37.652344 28.027344 39.808594 29.273438 41.167969 31.199219 C 42.003906 32.402344 42.480469 33.785156 42.480469 35.394531 C 42.480469 35.394531 42.480469 43.851562 42.480469 45.414062 C 42.480469 48.542969 42.664062 51.378906 42.980469 53.964844 Z M 23.917969 53.941406 " fill-opacity="1" fill-rule="nonzero"/><path fill="#ff6600" d="M 22.554688 39.746094 C 22.011719 40.902344 21.46875 42.058594 20.925781 43.214844 C 26.476562 45.824219 32.894531 45.824219 38.445312 43.214844 C 37.902344 42.058594 37.359375 40.902344 36.816406 39.746094 C 32.304688 41.878906 27.066406 41.878906 22.554688 39.746094 Z M 22.554688 39.746094 " fill-opacity="1" fill-rule="nonzero"/></svg>