<svg xmlns="http://www.w3.org/2000/svg" xmlns:xlink="http://www.w3.org/1999/xlink" width="220" zoomAndPan="magnify" viewBox="0 0 165 82.499998" height="110" preserveAspectRatio="xMidYMid meet" version="1.0"><defs><clipPath id="cc893c7e3a"><path d="M 0.496094 0 L 164.503906 0 L 164.503906 82.003906 L 0.496094 82.003906 Z M 0.496094 0 " clip-rule="nonzero"/></clipPath></defs><g clip-path="url(#cc893c7e3a)"><path fill="#ffffff" d="M 0.496094 0 L 164.503906 0 L 164.503906 82.003906 L 0.496094 82.003906 Z M 0.496094 0 " fill-opacity="1" fill-rule="nonzero"/></g><path fill="#1d1d1b" d="M 35.347656 29.796875 L 40.945312 29.796875 L 40.945312 52.058594 L 35.347656 52.058594 Z M 35.347656 29.796875 " fill-opacity="1" fill-rule="nonzero"/><path fill="#1d1d1b" d="M 63.96875 35.476562 C 64.074219 36.242188 64.121094 37.234375 64.121094 38.457031 L 64.121094 52.058594 L 59.226562 52.058594 L 59.226562 49.339844 C 58.234375 50.523438 57.152344 51.371094 55.972656 51.894531 C 54.789062 52.417969 53.351562 52.675781 51.652344 52.675781 C 50.113281 52.675781 48.789062 52.378906 47.667969 51.777344 C 46.550781 51.179688 45.699219 50.363281 45.117188 49.335938 C 44.535156 48.304688 44.242188 47.164062 44.242188 45.910156 C 44.242188 44.285156 44.621094 42.921875 45.375 41.808594 C 46.128906 40.695312 47.371094 39.820312 49.101562 39.1875 C 50.0625 38.828125 51.234375 38.527344 52.617188 38.269531 C 54.003906 38.015625 56 37.695312 58.609375 37.308594 C 58.5 36.265625 58.121094 35.5 57.464844 35.007812 C 56.8125 34.519531 55.839844 34.277344 54.53125 34.277344 C 53.585938 34.277344 52.683594 34.496094 51.832031 34.9375 C 50.980469 35.378906 50.398438 36.066406 50.085938 36.996094 L 45.023438 35.390625 C 45.597656 33.46875 46.683594 31.949219 48.277344 30.828125 C 49.871094 29.71875 51.953125 29.160156 54.53125 29.160156 C 58.90625 29.160156 61.804688 30.511719 63.214844 33.203125 C 63.613281 33.960938 63.863281 34.710938 63.96875 35.476562 Z M 58.566406 41.859375 C 56.632812 42.1875 55.214844 42.445312 54.304688 42.640625 C 53.398438 42.832031 52.640625 43.046875 52.019531 43.277344 C 51.210938 43.609375 50.625 43.976562 50.261719 44.378906 C 49.898438 44.785156 49.714844 45.269531 49.714844 45.832031 C 49.714844 46.585938 49.996094 47.183594 50.550781 47.617188 C 51.105469 48.050781 51.871094 48.265625 52.847656 48.265625 C 53.796875 48.265625 54.625 48.09375 55.339844 47.761719 C 56.054688 47.425781 56.625 47.027344 57.058594 46.574219 C 57.496094 46.125 57.800781 45.695312 57.996094 45.296875 C 58.347656 44.570312 58.539062 43.421875 58.566406 41.859375 Z M 58.566406 41.859375 " fill-opacity="1" fill-rule="nonzero"/><path fill="#1d1d1b" d="M 85.808594 31.136719 C 87.085938 32.472656 87.882812 33.878906 88.191406 35.367188 C 88.5 36.851562 88.652344 38.25 88.652344 39.574219 L 88.652344 52.066406 L 82.976562 52.066406 L 82.976562 41.550781 C 82.976562 40.421875 82.894531 39.363281 82.730469 38.371094 C 82.5625 37.382812 82.128906 36.480469 81.421875 35.652344 C 80.710938 34.828125 79.640625 34.414062 78.199219 34.414062 C 76.90625 34.414062 75.796875 34.855469 74.863281 35.746094 C 73.929688 36.632812 73.460938 38.308594 73.460938 40.769531 L 73.460938 52.066406 L 67.785156 52.066406 L 67.785156 29.796875 L 72.761719 29.796875 L 72.761719 32.085938 C 73.597656 31.148438 74.621094 30.429688 75.832031 29.910156 C 77.039062 29.394531 78.414062 29.140625 79.96875 29.140625 C 82.574219 29.132812 84.519531 29.800781 85.808594 31.136719 Z M 85.808594 31.136719 " fill-opacity="1" fill-rule="nonzero"/><path fill="#1d1d1b" d="M 96.085938 51.183594 C 94.382812 50.1875 93.0625 48.800781 92.121094 47.023438 C 91.183594 45.242188 90.714844 43.210938 90.714844 40.933594 C 90.714844 38.636719 91.195312 36.601562 92.144531 34.820312 C 93.09375 33.042969 94.429688 31.65625 96.136719 30.664062 C 97.84375 29.675781 99.777344 29.179688 101.949219 29.179688 C 104.160156 29.179688 106.117188 29.679688 107.828125 30.671875 C 109.535156 31.667969 110.859375 33.058594 111.8125 34.84375 C 112.757812 36.632812 113.230469 38.660156 113.230469 40.925781 C 113.230469 43.207031 112.75 45.238281 111.800781 47.015625 C 110.84375 48.792969 109.515625 50.183594 107.808594 51.179688 C 106.101562 52.175781 104.148438 52.671875 101.957031 52.671875 C 99.742188 52.683594 97.785156 52.179688 96.085938 51.183594 Z M 105.933594 45.667969 C 106.847656 44.484375 107.304688 42.902344 107.304688 40.925781 C 107.304688 38.90625 106.84375 37.316406 105.925781 36.152344 C 105.007812 34.992188 103.683594 34.414062 101.949219 34.414062 C 100.179688 34.414062 98.851562 34.992188 97.964844 36.152344 C 97.082031 37.316406 96.636719 38.90625 96.636719 40.925781 C 96.636719 42.957031 97.089844 44.554688 98.003906 45.710938 C 98.917969 46.867188 100.230469 47.445312 101.945312 47.445312 C 103.691406 47.441406 105.023438 46.851562 105.933594 45.667969 Z M 105.933594 45.667969 " fill-opacity="1" fill-rule="nonzero"/><path fill="#1d1d1b" d="M 27.042969 30.679688 C 28.644531 31.683594 29.875 33.082031 30.746094 34.867188 C 31.617188 36.65625 32.054688 38.671875 32.054688 40.925781 C 32.054688 43.140625 31.628906 45.140625 30.769531 46.929688 C 29.914062 48.71875 28.703125 50.121094 27.148438 51.144531 C 25.59375 52.167969 23.8125 52.683594 21.804688 52.683594 C 19.777344 52.683594 18 52.207031 16.496094 51.261719 L 16.496094 60.195312 L 10.855469 60.195312 L 10.855469 29.796875 L 15.796875 29.796875 L 15.796875 31.035156 C 17.375 29.796875 19.28125 29.179688 21.519531 29.179688 C 23.601562 29.179688 25.449219 29.679688 27.042969 30.679688 Z M 24.8125 45.804688 C 25.691406 44.550781 26.128906 42.921875 26.128906 40.925781 C 26.128906 39.648438 25.933594 38.5 25.53125 37.488281 C 25.136719 36.46875 24.53125 35.664062 23.71875 35.0625 C 22.910156 34.464844 21.898438 34.167969 20.695312 34.167969 C 19.007812 34.167969 17.769531 34.765625 16.980469 35.960938 C 16.1875 37.15625 15.796875 38.8125 15.796875 40.925781 C 15.796875 45.4375 17.5 47.6875 20.902344 47.6875 C 22.628906 47.6875 23.933594 47.0625 24.8125 45.804688 Z M 24.8125 45.804688 " fill-opacity="1" fill-rule="nonzero"/><path fill="#ffcc00" d="M 151.359375 24.164062 L 151.359375 57.691406 L 117.886719 57.691406 L 117.886719 24.164062 L 151.359375 24.164062 M 153.847656 21.667969 L 115.390625 21.667969 L 115.390625 60.191406 L 153.847656 60.191406 Z M 153.847656 21.667969 " fill-opacity="1" fill-rule="nonzero"/><path fill="#ffcc00" d="M 128.332031 50.886719 C 126.734375 49.886719 125.503906 48.488281 124.628906 46.703125 C 123.761719 44.914062 123.320312 42.898438 123.320312 40.640625 C 123.320312 38.429688 123.75 36.429688 124.605469 34.640625 C 125.464844 32.851562 126.675781 31.445312 128.230469 30.421875 C 129.785156 29.398438 131.566406 28.886719 133.570312 28.886719 C 135.601562 28.886719 137.375 29.359375 138.882812 30.308594 L 138.882812 21.664062 L 144.519531 21.664062 L 144.519531 51.769531 L 139.578125 51.769531 L 139.578125 50.527344 C 138.003906 51.769531 136.09375 52.382812 133.859375 52.382812 C 131.773438 52.390625 129.929688 51.890625 128.332031 50.886719 Z M 130.566406 35.761719 C 129.6875 37.019531 129.246094 38.648438 129.246094 40.640625 C 129.246094 41.917969 129.445312 43.070312 129.84375 44.082031 C 130.242188 45.101562 130.847656 45.90625 131.660156 46.503906 C 132.46875 47.105469 133.480469 47.402344 134.683594 47.402344 C 136.371094 47.402344 137.605469 46.800781 138.398438 45.605469 C 139.191406 44.414062 139.578125 42.753906 139.578125 40.640625 C 139.578125 36.132812 137.875 33.878906 134.472656 33.878906 C 132.746094 33.878906 131.445312 34.507812 130.566406 35.761719 Z M 130.566406 35.761719 " fill-opacity="1" fill-rule="nonzero"/></svg>